# Blender v2.62 (sub 0) OBJ File: 'cabinet.blend'
# www.blender.org
o Mesh_Cabinet
v -60.000000 0.000000 0.000000
v -30.000000 0.000000 0.000000
v -30.000000 -0.000005 30.000000
v -60.000000 -0.000005 30.000000
v -30.000000 200.000000 30.000032
v -30.000000 200.000000 0.000033
v -60.000000 200.000000 0.000033
v -60.000000 200.000000 30.000032
v -30.000000 3.435704 -26.362200
v -30.000000 50.000004 -26.362192
v -56.564301 50.000004 -26.362192
v -56.564301 3.435704 -26.362200
v 60.000000 0.000000 0.000000
v 60.000000 50.000000 0.000008
v 60.000000 49.999996 30.000008
v 60.000000 -0.000005 30.000000
v 30.000000 0.000005 -30.000000
v 30.000000 50.000004 -29.999992
v 60.000000 50.000004 -29.999992
v 60.000000 0.000005 -30.000000
v -60.000000 50.000000 0.000008
v -60.000000 50.000004 -29.999992
v -60.000000 0.000005 -30.000000
v -30.000000 3.435695 30.000000
v -56.564301 3.435695 30.000000
v 56.564301 49.999996 30.000008
v 56.564301 3.435695 30.000000
v 30.000000 200.000000 30.000032
v 30.000000 196.564301 30.000032
v 56.564301 196.564301 30.000032
v 60.000000 200.000000 30.000032
v -60.000000 150.000000 30.000025
v -56.564301 150.000000 30.000025
v -56.564301 196.564301 30.000032
v -30.000000 3.435700 0.000001
v -56.564301 3.435700 0.000001
v 56.564301 50.000000 0.000008
v 56.564301 3.435700 0.000001
v 30.000000 196.564301 0.000032
v 56.564301 196.564301 0.000032
v -56.564301 150.000000 0.000024
v -56.564301 196.564301 0.000032
v 56.564301 196.564301 -26.362167
v 30.000000 196.564301 -26.362167
v 30.000000 150.000000 -26.362175
v 56.564301 150.000000 -26.362175
v 60.000000 200.000000 -29.999968
v 60.000000 200.000000 0.000033
v 60.000000 150.000000 0.000024
v 60.000000 150.000000 -29.999975
v -60.000000 200.000000 -29.999968
v -30.000000 200.000000 -29.999968
v -30.000000 150.000000 -29.999975
v -60.000000 150.000000 -29.999975
v -60.000000 150.000000 0.000024
v 60.000000 150.000000 30.000025
v 56.564301 150.000000 30.000025
v -60.000000 99.999992 30.000017
v -56.564301 99.999992 30.000017
v 56.564301 150.000000 0.000024
v -56.564301 100.000000 0.000016
v 30.000000 100.000008 -26.362183
v 56.564301 100.000008 -26.362183
v 60.000000 100.000000 0.000016
v 60.000000 100.000008 -29.999983
v -30.000000 100.000008 -29.999983
v -60.000000 100.000008 -29.999983
v -60.000000 100.000000 0.000016
v 56.564301 99.999992 30.000017
v 60.000000 99.999992 30.000017
v 56.564301 100.000000 0.000016
v -60.000000 49.999996 30.000008
v -56.564301 49.999996 30.000008
v -56.564301 50.000000 0.000008
v 30.000000 50.000004 -26.362192
v 56.564301 50.000004 -26.362192
v -30.000000 50.000004 -29.999992
v 30.000000 0.000000 0.000000
v 0.000000 0.000000 0.000000
v 0.000000 0.000005 -30.000000
v 30.000000 200.000000 0.000033
v 0.000000 200.000000 0.000033
v 0.000000 200.000000 30.000032
v 30.000000 3.435704 -26.362200
v 0.000000 50.000004 -26.362192
v 0.000000 3.435704 -26.362200
v -30.000000 0.000005 -30.000000
v 0.000000 50.000004 -29.999992
v 30.000000 -0.000005 30.000000
v 30.000000 3.435695 30.000000
v 0.000000 3.435695 30.000000
v 0.000000 -0.000005 30.000000
v -30.000000 196.564301 30.000032
v 0.000000 196.564301 30.000032
v 30.000000 3.435700 0.000001
v 0.000000 3.435700 0.000001
v -30.000000 196.564301 0.000032
v 0.000000 196.564301 0.000032
v -30.000000 196.564301 -26.362167
v -30.000000 150.000000 -26.362175
v 0.000000 150.000000 -26.362175
v 0.000000 196.564301 -26.362167
v 30.000000 200.000000 -29.999968
v 30.000000 150.000000 -29.999975
v 0.000000 150.000000 -29.999975
v 0.000000 200.000000 -29.999968
v -30.000000 100.000008 -26.362183
v 0.000000 100.000008 -26.362183
v 30.000000 100.000008 -29.999983
v 0.000000 100.000008 -29.999983
v -56.564301 196.564301 -26.362167
v -56.564301 150.000000 -26.362175
v -56.564301 100.000008 -26.362183
v 56.564301 3.435704 -26.362200
vt 0.509773 0.386636
vt 0.586595 0.386640
vt 0.587339 0.463000
vt 0.509535 0.463400
vt 0.589154 0.152455
vt 0.588392 0.228794
vt 0.511806 0.228861
vt 0.511431 0.152407
vt 0.508740 0.839849
vt 0.627184 0.839849
vt 0.627184 0.907421
vt 0.508739 0.907420
vt 0.000406 0.386807
vt 0.128702 0.386692
vt 0.129861 0.462616
vt 0.000000 0.463418
vt 0.000001 0.848588
vt 0.127185 0.848588
vt 0.127185 0.924899
vt 0.000001 0.924899
vt 0.000817 0.233178
vt 0.129813 0.232499
vt 0.129849 0.308869
vt 0.001580 0.310140
vt 0.587389 0.472414
vt 0.518588 0.472385
vt 0.130372 0.478164
vt 0.015169 0.478228
vt 0.739234 0.152657
vt 0.739178 0.143258
vt 0.807887 0.143178
vt 0.816946 0.152138
vt 0.380868 0.156574
vt 0.380318 0.140952
vt 0.496147 0.140620
vt 0.511431 0.155483
vt 0.586656 0.548814
vt 0.518883 0.548828
vt 0.130054 0.552367
vt 0.014997 0.552013
vt 0.739846 0.067000
vt 0.807477 0.066898
vt 0.380448 0.066436
vt 0.496090 0.066448
vt 0.999999 0.619655
vt 0.999999 0.687227
vt 0.881553 0.687228
vt 0.881553 0.619656
vt 0.508070 0.310142
vt 0.508703 0.386868
vt 0.379821 0.387407
vt 0.379919 0.311058
vt 0.508739 0.619656
vt 0.508739 0.695966
vt 0.381555 0.695966
vt 0.381555 0.619655
vt 0.510828 0.233153
vt 0.381762 0.232879
vt 0.378950 0.463902
vt 0.509535 0.464311
vt 0.494462 0.479123
vt 0.378895 0.479535
vt 0.256130 0.157418
vt 0.255665 0.141288
vt 0.494455 0.553929
vt 0.378585 0.553821
vt 0.255944 0.066297
vt 0.754369 0.687228
vt 0.754368 0.619657
vt 0.254137 0.386811
vt 0.254271 0.311230
vt 0.254370 0.695966
vt 0.254370 0.619655
vt 0.255812 0.232966
vt 0.254529 0.478098
vt 0.254108 0.462012
vt 0.254071 0.552877
vt 0.131012 0.155992
vt 0.131030 0.140309
vt 0.131152 0.065761
vt 0.627184 0.687228
vt 0.627184 0.619657
vt 0.128747 0.310650
vt 0.127185 0.695966
vt 0.127185 0.619655
vt 0.000000 0.155643
vt 0.015114 0.140785
vt 0.015012 0.065847
vt 0.738497 0.310412
vt 0.738467 0.386771
vt 0.662536 0.386652
vt 0.662543 0.310494
vt 0.739902 0.228754
vt 0.664141 0.228827
vt 0.664205 0.152790
vt 0.508740 0.687228
vt 0.627184 0.763539
vt 0.508740 0.763539
vt 0.000000 0.695966
vt 0.127185 0.772277
vt 0.000000 0.772277
vt 0.737853 0.463243
vt 0.737908 0.472678
vt 0.662624 0.472739
vt 0.662555 0.462870
vt 0.589088 0.143054
vt 0.664133 0.142949
vt 0.738367 0.548965
vt 0.662491 0.548903
vt 0.588524 0.067019
vt 0.664195 0.066989
vt 1.000000 0.839849
vt 0.881554 0.839850
vt 0.881554 0.763539
vt 1.000000 0.763538
vt 0.508739 0.848588
vt 0.381554 0.848588
vt 0.381555 0.772277
vt 0.508739 0.772277
vt 0.754369 0.839850
vt 0.754369 0.763539
vt 0.254370 0.848588
vt 0.254370 0.772277
vt 0.586564 0.310333
vt 0.000000 0.619655
vt 0.520411 0.143415
vt 0.520861 0.066837
vt 1.000000 0.907421
vt 0.881554 0.907421
vt 0.754369 0.907421
vt 0.814970 0.310140
vt 0.815297 0.386517
vt 0.816517 0.228920
vt 0.508740 0.619657
vt 0.815855 0.463460
vt 0.806822 0.472464
vt 0.806228 0.549262
vt 0.508739 0.924899
vt 0.381554 0.924898
vt 0.254370 0.924898
vt 0.509969 0.310144
vt 0.588364 0.304871
vt 0.512080 0.305145
vt 0.000719 0.310140
vt 0.586589 0.615692
vt 0.519047 0.615857
vt 0.129771 0.617653
vt 0.014713 0.617152
vt 0.739829 0.000274
vt 0.807223 0.000017
vt 0.380521 0.000869
vt 0.496155 0.000983
vt 0.510319 0.310140
vt 0.381748 0.309363
vt 0.494346 0.619655
vt 0.378252 0.619390
vt 0.256110 0.000564
vt 0.255669 0.308746
vt 0.253698 0.618415
vt 0.131304 0.000031
vt 0.014999 0.000000
vt 0.739923 0.304906
vt 0.664118 0.304776
vt 0.738248 0.615934
vt 0.662390 0.615683
vt 0.588547 0.000234
vt 0.664212 0.000379
vt 0.521124 0.000000
vt 0.816242 0.305145
vt 0.805853 0.616277
vn -0.000000 -1.000000 -0.000000
vn 0.000000 1.000000 0.000000
vn 0.000000 -0.000000 1.000000
vn 1.000000 0.000000 0.000000
vn 0.000000 0.000000 -1.000000
vn -1.000000 -0.000000 0.000000
s off
f 1/1/1 2/2/1 3/3/1
f 4/4/1 1/1/1 3/3/1
f 5/5/2 6/6/2 7/7/2
f 7/7/2 8/8/2 5/5/2
f 9/9/3 10/10/3 11/11/3
f 11/11/3 12/12/3 9/9/3
f 13/13/4 14/14/4 15/15/4
f 15/15/4 16/16/4 13/13/4
f 17/17/5 18/18/5 19/19/5
f 19/19/5 20/20/5 17/17/5
f 1/21/6 21/22/6 22/23/6
f 23/24/6 1/21/6 22/23/6
f 3/3/3 24/25/3 25/26/3
f 25/26/3 4/4/3 3/3/3
f 15/15/3 26/27/3 27/28/3
f 27/28/3 16/16/3 15/15/3
f 28/29/3 29/30/3 30/31/3
f 30/31/3 31/32/3 28/29/3
f 32/33/3 33/34/3 34/35/3
f 34/35/3 8/36/3 32/33/3
f 24/25/2 35/37/2 36/38/2
f 36/38/2 25/26/2 24/25/2
f 26/27/6 37/39/6 38/40/6
f 38/40/6 27/28/6 26/27/6
f 29/30/1 39/41/1 40/42/1
f 40/42/1 30/31/1 29/30/1
f 33/34/4 41/43/4 42/44/4
f 42/44/4 34/35/4 33/34/4
f 43/45/3 44/46/3 45/47/3
f 45/47/3 46/48/3 43/45/3
f 47/49/4 48/50/4 49/51/4
f 49/51/4 50/52/4 47/49/4
f 51/53/5 52/54/5 53/55/5
f 53/55/5 54/56/5 51/53/5
f 8/36/6 7/57/6 55/58/6
f 55/58/6 32/33/6 8/36/6
f 56/59/3 31/60/3 30/61/3
f 30/61/3 57/62/3 56/59/3
f 58/63/3 59/64/3 33/34/3
f 33/34/3 32/33/3 58/63/3
f 30/61/6 40/65/6 60/66/6
f 60/66/6 57/62/6 30/61/6
f 59/64/4 61/67/4 41/43/4
f 41/43/4 33/34/4 59/64/4
f 46/48/3 45/47/3 62/68/3
f 62/68/3 63/69/3 46/48/3
f 50/52/4 49/51/4 64/70/4
f 64/70/4 65/71/4 50/52/4
f 54/56/5 53/55/5 66/72/5
f 66/72/5 67/73/5 54/56/5
f 32/33/6 55/58/6 68/74/6
f 68/74/6 58/63/6 32/33/6
f 56/59/3 57/62/3 69/75/3
f 69/75/3 70/76/3 56/59/3
f 57/62/6 60/66/6 71/77/6
f 71/77/6 69/75/6 57/62/6
f 72/78/3 73/79/3 59/64/3
f 59/64/3 58/63/3 72/78/3
f 73/79/4 74/80/4 61/67/4
f 61/67/4 59/64/4 73/79/4
f 63/69/3 62/68/3 75/81/3
f 75/81/3 76/82/3 63/69/3
f 65/71/4 64/70/4 14/14/4
f 14/14/4 19/83/4 65/71/4
f 67/73/5 66/72/5 77/84/5
f 77/84/5 22/85/5 67/73/5
f 58/63/6 68/74/6 21/22/6
f 21/22/6 72/78/6 58/63/6
f 70/76/3 69/75/3 26/27/3
f 26/27/3 15/15/3 70/76/3
f 69/75/6 71/77/6 37/39/6
f 37/39/6 26/27/6 69/75/6
f 72/78/3 4/86/3 25/87/3
f 25/87/3 73/79/3 72/78/3
f 25/87/4 36/88/4 74/80/4
f 74/80/4 73/79/4 25/87/4
f 17/89/1 78/90/1 79/91/1
f 79/91/1 80/92/1 17/89/1
f 28/29/2 81/93/2 82/94/2
f 82/94/2 83/95/2 28/29/2
f 84/96/3 75/81/3 85/97/3
f 85/97/3 86/98/3 84/96/3
f 87/99/5 77/84/5 88/100/5
f 88/100/5 80/101/5 87/99/5
f 89/102/3 90/103/3 91/104/3
f 91/104/3 92/105/3 89/102/3
f 5/5/3 93/106/3 94/107/3
f 94/107/3 83/95/3 5/5/3
f 90/103/2 95/108/2 96/109/2
f 96/109/2 91/104/2 90/103/2
f 93/106/1 97/110/1 98/111/1
f 98/111/1 94/107/1 93/106/1
f 99/112/3 100/113/3 101/114/3
f 101/114/3 102/115/3 99/112/3
f 103/116/5 104/117/5 105/118/5
f 105/118/5 106/119/5 103/116/5
f 100/113/3 107/120/3 108/121/3
f 108/121/3 101/114/3 100/113/3
f 104/117/5 109/122/5 110/123/5
f 110/123/5 105/118/5 104/117/5
f 107/120/3 10/10/3 85/97/3
f 85/97/3 108/121/3 107/120/3
f 109/122/5 18/18/5 88/100/5
f 88/100/5 110/123/5 109/122/5
f 80/92/1 79/91/1 2/2/1
f 2/2/1 87/124/1 80/92/1
f 83/95/2 82/94/2 6/6/2
f 6/6/2 5/5/2 83/95/2
f 86/98/3 85/97/3 10/10/3
f 10/10/3 9/9/3 86/98/3
f 92/105/3 91/104/3 24/25/3
f 24/25/3 3/3/3 92/105/3
f 91/104/2 96/109/2 35/37/2
f 35/37/2 24/25/2 91/104/2
f 106/119/5 105/118/5 53/55/5
f 53/55/5 52/54/5 106/119/5
f 105/118/5 110/123/5 66/72/5
f 66/72/5 53/55/5 105/118/5
f 110/123/5 88/100/5 77/84/5
f 77/84/5 66/72/5 110/123/5
f 23/125/5 22/85/5 77/84/5
f 77/84/5 87/99/5 23/125/5
f 5/5/3 8/8/3 34/126/3
f 34/126/3 93/106/3 5/5/3
f 34/126/1 42/127/1 97/110/1
f 97/110/1 93/106/1 34/126/1
f 111/128/3 112/129/3 100/113/3
f 100/113/3 99/112/3 111/128/3
f 112/129/3 113/130/3 107/120/3
f 107/120/3 100/113/3 112/129/3
f 113/130/3 11/11/3 10/10/3
f 10/10/3 107/120/3 113/130/3
f 80/101/5 88/100/5 18/18/5
f 18/18/5 17/17/5 80/101/5
f 83/95/3 94/107/3 29/30/3
f 29/30/3 28/29/3 83/95/3
f 94/107/1 98/111/1 39/41/1
f 39/41/1 29/30/1 94/107/1
f 102/115/3 101/114/3 45/47/3
f 45/47/3 44/46/3 102/115/3
f 101/114/3 108/121/3 62/68/3
f 62/68/3 45/47/3 101/114/3
f 108/121/3 85/97/3 75/81/3
f 75/81/3 62/68/3 108/121/3
f 20/131/1 13/132/1 78/90/1
f 78/90/1 17/89/1 20/131/1
f 31/32/2 48/133/2 81/93/2
f 81/93/2 28/29/2 31/32/2
f 114/134/3 76/82/3 75/81/3
f 75/81/3 84/96/3 114/134/3
f 89/102/3 16/135/3 27/136/3
f 27/136/3 90/103/3 89/102/3
f 27/136/2 38/137/2 95/108/2
f 95/108/2 90/103/2 27/136/2
f 47/138/5 50/139/5 104/117/5
f 104/117/5 103/116/5 47/138/5
f 50/139/5 65/140/5 109/122/5
f 109/122/5 104/117/5 50/139/5
f 65/140/5 19/19/5 18/18/5
f 18/18/5 109/122/5 65/140/5
f 23/141/1 87/124/1 2/2/1
f 2/2/1 1/1/1 23/141/1
f 52/142/2 51/143/2 7/7/2
f 7/7/2 6/6/2 52/142/2
f 20/144/4 19/83/4 14/14/4
f 14/14/4 13/13/4 20/144/4
f 4/86/6 72/78/6 21/22/6
f 21/22/6 1/21/6 4/86/6
f 9/145/2 12/146/2 36/38/2
f 36/38/2 35/37/2 9/145/2
f 76/147/6 114/148/6 38/40/6
f 38/40/6 37/39/6 76/147/6
f 44/149/1 43/150/1 40/42/1
f 40/42/1 39/41/1 44/149/1
f 112/151/4 111/152/4 42/44/4
f 42/44/4 41/43/4 112/151/4
f 31/60/4 56/59/4 49/51/4
f 49/51/4 48/50/4 31/60/4
f 51/153/6 54/154/6 55/58/6
f 55/58/6 7/57/6 51/153/6
f 43/155/6 46/156/6 60/66/6
f 60/66/6 40/65/6 43/155/6
f 113/157/4 112/151/4 41/43/4
f 41/43/4 61/67/4 113/157/4
f 56/59/4 70/76/4 64/70/4
f 64/70/4 49/51/4 56/59/4
f 54/154/6 67/158/6 68/74/6
f 68/74/6 55/58/6 54/154/6
f 46/156/6 63/159/6 71/77/6
f 71/77/6 60/66/6 46/156/6
f 11/160/4 113/157/4 61/67/4
f 61/67/4 74/80/4 11/160/4
f 70/76/4 15/15/4 14/14/4
f 14/14/4 64/70/4 70/76/4
f 67/158/6 22/23/6 21/22/6
f 21/22/6 68/74/6 67/158/6
f 63/159/6 76/147/6 37/39/6
f 37/39/6 71/77/6 63/159/6
f 12/161/4 11/160/4 74/80/4
f 74/80/4 36/88/4 12/161/4
f 89/102/1 92/105/1 79/91/1
f 79/91/1 78/90/1 89/102/1
f 103/162/2 106/163/2 82/94/2
f 82/94/2 81/93/2 103/162/2
f 84/164/2 86/165/2 96/109/2
f 96/109/2 95/108/2 84/164/2
f 99/166/1 102/167/1 98/111/1
f 98/111/1 97/110/1 99/166/1
f 92/105/1 3/3/1 2/2/1
f 2/2/1 79/91/1 92/105/1
f 106/163/2 52/142/2 6/6/2
f 6/6/2 82/94/2 106/163/2
f 86/165/2 9/145/2 35/37/2
f 35/37/2 96/109/2 86/165/2
f 111/168/1 99/166/1 97/110/1
f 97/110/1 42/127/1 111/168/1
f 102/167/1 44/149/1 39/41/1
f 39/41/1 98/111/1 102/167/1
f 16/135/1 89/102/1 78/90/1
f 78/90/1 13/132/1 16/135/1
f 47/169/2 103/162/2 81/93/2
f 81/93/2 48/133/2 47/169/2
f 114/170/2 84/164/2 95/108/2
f 95/108/2 38/137/2 114/170/2
