# Blender v2.62 (sub 0) OBJ File: 'cabinet-leftdoor.blend'
# www.blender.org
o Mesh_RightDoor
v 0.000000 -0.000005 33.000000
v 0.000000 -0.000005 30.000000
v 30.000000 -0.000005 30.000000
v 30.000000 -0.000005 33.000000
v 60.000000 -0.000005 30.000000
v 60.000000 -0.000005 33.000000
v 0.000000 200.000000 33.000034
v 30.000000 200.000000 33.000034
v 30.000000 200.000000 30.000032
v 0.000000 200.000000 30.000032
v 60.000000 200.000000 33.000034
v 60.000000 200.000000 30.000032
v 30.000000 49.999996 33.000008
v 0.000000 49.999996 33.000008
v 60.000000 49.999996 33.000008
v 30.000000 99.999992 33.000015
v 0.000000 99.999992 33.000015
v 60.000000 99.999992 33.000015
v 30.000000 150.000000 33.000023
v 0.000000 150.000000 33.000023
v 60.000000 150.000000 33.000023
v 60.000000 49.999996 30.000008
v 60.000000 99.999992 30.000017
v 60.000000 150.000000 30.000025
v 30.000000 49.999996 30.000008
v 0.000000 49.999996 30.000008
v 30.000000 99.999992 30.000017
v 0.000000 99.999992 30.000017
v 30.000000 150.000000 30.000025
v 0.000000 150.000000 30.000025
vt 0.019498 0.320579
vt 0.000593 0.320943
vt 0.000206 0.176899
vt 0.019088 0.176547
vt 0.000000 0.033183
vt 0.018778 0.032839
vt 0.980730 0.319310
vt 0.981040 0.175835
vt 0.999894 0.176171
vt 0.999563 0.319665
vt 0.981208 0.032017
vt 1.000000 0.032347
vt 0.259428 0.175724
vt 0.259311 0.320061
vt 0.259441 0.031812
vt 0.500365 0.175594
vt 0.500054 0.319713
vt 0.500746 0.031368
vt 0.741098 0.175747
vt 0.740806 0.319365
vt 0.741584 0.031461
vt 0.017482 0.001367
vt 0.258203 0.000300
vt 0.499597 0.000000
vt 0.740506 0.000205
vt 0.980156 0.000996
vt 0.020368 0.638806
vt 0.020565 0.494810
vt 0.260338 0.494984
vt 0.260289 0.639108
vt 0.020693 0.351628
vt 0.260481 0.351311
vt 0.500899 0.494958
vt 0.500869 0.639333
vt 0.501207 0.350872
vt 0.741668 0.494967
vt 0.741723 0.639341
vt 0.741953 0.350625
vt 0.982118 0.494682
vt 0.982304 0.639031
vt 0.981891 0.350377
vn -0.000000 -1.000000 -0.000000
vn 0.000000 1.000000 -0.000000
vn 0.000000 -0.000000 1.000000
vn 1.000000 0.000000 0.000000
vn 0.000000 0.000000 -1.000000
vn -1.000000 0.000000 -0.000000
s off
f 1/1/1 2/2/1 3/3/1
f 4/4/1 1/1/1 3/3/1
f 4/4/1 3/3/1 5/5/1
f 5/5/1 6/6/1 4/4/1
f 7/7/2 8/8/2 9/9/2
f 9/9/2 10/10/2 7/7/2
f 8/8/2 11/11/2 12/12/2
f 12/12/2 9/9/2 8/8/2
f 1/1/3 4/4/3 13/13/3
f 14/14/3 1/1/3 13/13/3
f 4/4/3 6/6/3 15/15/3
f 15/15/3 13/13/3 4/4/3
f 14/14/3 13/13/3 16/16/3
f 16/16/3 17/17/3 14/14/3
f 13/13/3 15/15/3 18/18/3
f 18/18/3 16/16/3 13/13/3
f 17/17/3 16/16/3 19/19/3
f 19/19/3 20/20/3 17/17/3
f 16/16/3 18/18/3 21/21/3
f 21/21/3 19/19/3 16/16/3
f 20/20/3 19/19/3 8/8/3
f 8/8/3 7/7/3 20/20/3
f 19/19/3 21/21/3 11/11/3
f 11/11/3 8/8/3 19/19/3
f 6/6/4 5/22/4 22/23/4
f 22/23/4 15/15/4 6/6/4
f 15/15/4 22/23/4 23/24/4
f 23/24/4 18/18/4 15/15/4
f 18/18/4 23/24/4 24/25/4
f 24/25/4 21/21/4 18/18/4
f 21/21/4 24/25/4 12/26/4
f 12/26/4 11/11/4 21/21/4
f 5/27/5 3/28/5 25/29/5
f 25/29/5 22/30/5 5/27/5
f 3/28/5 2/31/5 26/32/5
f 26/32/5 25/29/5 3/28/5
f 22/30/5 25/29/5 27/33/5
f 27/33/5 23/34/5 22/30/5
f 25/29/5 26/32/5 28/35/5
f 28/35/5 27/33/5 25/29/5
f 23/34/5 27/33/5 29/36/5
f 29/36/5 24/37/5 23/34/5
f 27/33/5 28/35/5 30/38/5
f 30/38/5 29/36/5 27/33/5
f 24/37/5 29/36/5 9/39/5
f 9/39/5 12/40/5 24/37/5
f 29/36/5 30/38/5 10/41/5
f 10/41/5 9/39/5 29/36/5
f 2/31/6 1/1/6 14/14/6
f 14/14/6 26/32/6 2/31/6
f 26/32/6 14/14/6 17/17/6
f 17/17/6 28/35/6 26/32/6
f 28/35/6 17/17/6 20/20/6
f 20/20/6 30/38/6 28/35/6
f 30/38/6 20/20/6 7/7/6
f 7/7/6 10/41/6 30/38/6
