# Blender v2.62 (sub 0) OBJ File: 'cabinet-left.blend'
# www.blender.org
o Mesh_LeftDoor
v -62.121300 -0.000005 32.121300
v -60.000000 -0.000005 30.000000
v -38.786800 -0.000008 51.213200
v -40.908100 -0.000009 53.334499
v -17.573601 -0.000012 72.426399
v -19.694901 -0.000012 74.547699
v -62.121399 200.000000 32.121433
v -40.908199 199.999985 53.334633
v -38.786900 199.999985 51.213333
v -60.000099 200.000000 30.000132
v -19.695000 199.999985 74.547829
v -17.573700 199.999985 72.426529
v -40.908100 49.999992 53.334507
v -62.121300 49.999996 32.121307
v -19.694901 49.999989 74.547707
v -40.908100 99.999992 53.334614
v -62.121399 99.999992 32.121414
v -19.694901 99.999985 74.547813
v -40.908199 149.999985 53.334621
v -62.121399 150.000000 32.121422
v -19.695000 149.999985 74.547821
v -17.573601 49.999989 72.426407
v -17.573601 99.999985 72.426414
v -17.573601 149.999985 72.426521
v -38.786800 49.999992 51.213207
v -60.000000 49.999996 30.000008
v -38.786800 99.999992 51.213215
v -60.000000 99.999992 30.000017
v -38.786800 149.999985 51.213322
v -60.000000 150.000000 30.000124
vt 0.018874 0.607114
vt 0.000000 0.607393
vt 0.000258 0.463597
vt 0.019108 0.463332
vt 0.000721 0.320136
vt 0.019467 0.319880
vt 0.981138 0.606709
vt 0.980898 0.463026
vt 0.999779 0.463292
vt 1.000000 0.606993
vt 0.980542 0.319008
vt 0.999361 0.319270
vt 0.259000 0.463516
vt 0.258452 0.607775
vt 0.259350 0.319923
vt 0.499691 0.463770
vt 0.499248 0.607971
vt 0.500062 0.319675
vt 0.740589 0.463743
vt 0.740514 0.607630
vt 0.740766 0.319428
vt 0.018319 0.288818
vt 0.258217 0.288667
vt 0.498922 0.288520
vt 0.739609 0.288182
vt 0.979360 0.287963
vt 0.018151 0.144537
vt 0.258561 0.144350
vt 0.018023 0.000212
vt 0.258565 0.000000
vt 0.499289 0.144458
vt 0.499379 0.000106
vt 0.739812 0.144532
vt 0.739920 0.000431
vt 0.979546 0.144804
vt 0.979803 0.000831
vt 0.019912 0.638130
vt 0.259517 0.639026
vt 0.500384 0.639334
vt 0.741737 0.639138
vt 0.982420 0.638177
vn 0.000000 -1.000000 -0.000000
vn 0.000000 1.000000 0.000000
vn -0.707107 -0.000000 0.707107
vn -0.707107 -0.000002 0.707107
vn -0.707105 -0.000003 0.707108
vn -0.707105 -0.000002 0.707108
vn 0.707107 -0.000000 0.707107
vn 0.707123 -0.000002 0.707090
vn 0.707090 0.000001 0.707123
vn 0.707107 0.000000 -0.707107
vn 0.707107 0.000002 -0.707107
vn -0.707107 0.000000 -0.707107
vn -0.707106 0.000000 -0.707107
vn -0.707090 0.000002 -0.707124
vn -0.707090 0.000000 -0.707124
vn -0.707107 -0.000001 -0.707106
s off
f 1/1/1 2/2/1 3/3/1
f 4/4/1 1/1/1 3/3/1
f 4/4/1 3/3/1 5/5/1
f 5/5/1 6/6/1 4/4/1
f 7/7/2 8/8/2 9/9/2
f 9/9/2 10/10/2 7/7/2
f 8/8/2 11/11/2 12/12/2
f 12/12/2 9/9/2 8/8/2
f 1/1/3 4/4/3 13/13/3
f 14/14/3 1/1/3 13/13/3
f 4/4/3 6/6/3 15/15/3
f 15/15/3 13/13/3 4/4/3
f 14/14/4 13/13/4 16/16/4
f 16/16/5 17/17/5 14/14/5
f 13/13/4 15/15/4 18/18/4
f 18/18/4 16/16/4 13/13/4
f 17/17/6 16/16/6 19/19/6
f 19/19/3 20/20/3 17/17/3
f 16/16/4 18/18/4 21/21/4
f 21/21/4 19/19/4 16/16/4
f 20/20/3 19/19/3 8/8/3
f 8/8/3 7/7/3 20/20/3
f 19/19/3 21/21/3 11/11/3
f 11/11/3 8/8/3 19/19/3
f 6/6/7 5/22/7 22/23/7
f 22/23/7 15/15/7 6/6/7
f 15/15/7 22/23/7 23/24/7
f 23/24/8 18/18/8 15/15/8
f 18/18/8 23/24/8 24/25/8
f 24/25/9 21/21/9 18/18/9
f 21/21/9 24/25/9 12/26/9
f 12/26/7 11/11/7 21/21/7
f 5/22/10 3/27/10 25/28/10
f 25/28/10 22/23/10 5/22/10
f 3/27/10 2/29/10 26/30/10
f 26/30/10 25/28/10 3/27/10
f 22/23/10 25/28/10 27/31/10
f 27/31/10 23/24/10 22/23/10
f 25/28/10 26/30/10 28/32/10
f 28/32/10 27/31/10 25/28/10
f 23/24/11 27/31/11 29/33/11
f 29/33/11 24/25/11 23/24/11
f 27/31/11 28/32/11 30/34/11
f 30/34/11 29/33/11 27/31/11
f 24/25/11 29/33/11 9/35/11
f 9/35/11 12/26/11 24/25/11
f 29/33/11 30/34/11 10/36/11
f 10/36/11 9/35/11 29/33/11
f 2/37/12 1/1/12 14/14/12
f 14/14/12 26/38/12 2/37/12
f 26/38/12 14/14/12 17/17/12
f 17/17/13 28/39/13 26/38/13
f 28/39/12 17/17/12 20/20/12
f 20/20/14 30/40/14 28/39/14
f 30/40/15 20/20/15 7/7/15
f 7/7/16 10/41/16 30/40/16
