# Blender v2.62 (sub 0) OBJ File: 'clock.blend'
# www.blender.org
o Mesh_Clock
v 25.000000 -4.000000 -0.666701
v 23.492300 4.550500 -0.666699
v 23.492300 4.550499 2.333301
v 25.000000 -4.000000 2.333299
v 19.151100 12.069700 -0.666698
v 19.151100 12.069700 2.333302
v 12.500000 17.650600 -0.666697
v 12.500000 17.650600 2.333303
v 4.341200 20.620199 -0.666697
v 4.341200 20.620199 2.333303
v -4.341200 20.620199 -0.666697
v -4.341200 20.620199 2.333303
v -12.500000 17.650600 -0.666697
v -12.500000 17.650600 2.333303
v -19.151100 12.069700 -0.666698
v -19.151100 12.069700 2.333302
v -23.492300 4.550500 -0.666699
v -23.492300 4.550499 2.333301
v -25.000000 -4.000000 -0.666701
v -25.000000 -4.000000 2.333299
v -23.492300 -12.550500 -0.666702
v -23.492300 -12.550500 2.333298
v -19.151100 -20.069700 -0.666703
v -19.151100 -20.069700 2.333297
v -12.500000 -25.650600 -0.666704
v -12.500000 -25.650600 2.333296
v -4.341200 -28.620199 -0.666705
v -4.341200 -28.620199 2.333295
v 4.341200 -28.620199 -0.666705
v 4.341200 -28.620199 2.333295
v 12.500000 -25.650600 -0.666704
v 12.500000 -25.650600 2.333296
v 19.151100 -20.069700 -0.666703
v 19.151100 -20.069700 2.333297
v 23.492300 -12.550500 -0.666702
v 23.492300 -12.550500 2.333298
v 20.900600 3.607199 2.333301
v 22.241899 -4.000000 2.333299
v 17.038300 10.296800 2.333302
v 11.121000 15.262100 2.333302
v 3.862300 17.903999 2.333303
v -3.862300 17.903999 2.333303
v -11.121000 15.262100 2.333302
v -17.038300 10.296800 2.333302
v -20.900600 3.607199 2.333301
v -22.241899 -4.000000 2.333299
v -20.900600 -11.607200 2.333298
v -17.038300 -18.296801 2.333297
v -11.121000 -23.262100 2.333296
v -3.862300 -25.903999 2.333296
v 3.862300 -25.903999 2.333296
v 11.121000 -23.262100 2.333296
v 17.038300 -18.296900 2.333297
v 20.900600 -11.607200 2.333298
v 20.900600 3.607200 0.875701
v 22.241899 -4.000000 0.875699
v 17.038300 10.296800 0.875702
v 11.121000 15.262100 0.875703
v 3.862300 17.903999 0.875703
v -3.862300 17.903999 0.875703
v -11.121000 15.262100 0.875703
v -17.038300 10.296800 0.875702
v -20.900600 3.607200 0.875701
v -22.241899 -4.000000 0.875699
v -20.900600 -11.607200 0.875698
v -17.038300 -18.296801 0.875697
v -11.121000 -23.262100 0.875696
v -3.862300 -25.903999 0.875696
v 3.862300 -25.903999 0.875696
v 11.121000 -23.262100 0.875696
v 17.038300 -18.296900 0.875697
v 20.900600 -11.607200 0.875698
v 0.000000 -4.000000 -0.666701
v 0.000000 -4.000000 0.875699
vt 0.000000 0.796476
vt 0.032595 0.743130
vt 0.050229 0.755521
vt 0.019307 0.807954
vt 0.070663 0.694190
vt 0.086609 0.708483
vt 0.114358 0.650207
vt 0.128453 0.666319
vt 0.163043 0.611873
vt 0.175071 0.629566
vt 0.215989 0.579750
vt 0.225775 0.598762
vt 0.272413 0.554303
vt 0.279816 0.574352
vt 0.331481 0.535896
vt 0.336396 0.556688
vt 0.392325 0.524794
vt 0.394681 0.546022
vt 0.454051 0.521152
vt 0.453816 0.542504
vt 0.515753 0.525020
vt 0.512930 0.546183
vt 0.576518 0.536341
vt 0.571152 0.557000
vt 0.635446 0.554943
vt 0.627616 0.574793
vt 0.691665 0.580545
vt 0.681489 0.599292
vt 0.744340 0.612764
vt 0.731972 0.630130
vt 0.792694 0.651114
vt 0.778322 0.666843
vt 0.836013 0.695010
vt 0.819883 0.708870
vt 0.873684 0.743694
vt 0.856365 0.755429
vt 0.905993 0.796454
vt 0.887762 0.807618
vt 0.066046 0.766141
vt 0.037054 0.814514
vt 0.101378 0.721142
vt 0.141587 0.680674
vt 0.186360 0.645400
vt 0.235054 0.615839
vt 0.286949 0.592421
vt 0.341282 0.575482
vt 0.397250 0.565264
vt 0.454032 0.561913
vt 0.510792 0.565470
vt 0.566691 0.575882
vt 0.620902 0.592989
vt 0.672621 0.616534
vt 0.721084 0.646162
vt 0.765576 0.681430
vt 0.805451 0.721817
vt 0.840094 0.766786
vt 0.868522 0.814884
vt 0.074872 0.772153
vt 0.046073 0.819948
vt 0.109239 0.727996
vt 0.148543 0.688412
vt 0.192320 0.653919
vt 0.239933 0.625014
vt 0.290677 0.602116
vt 0.343804 0.585554
vt 0.398532 0.575565
vt 0.454055 0.572291
vt 0.509557 0.575773
vt 0.564216 0.585957
vt 0.617225 0.602686
vt 0.667798 0.625710
vt 0.715187 0.654682
vt 0.758692 0.689169
vt 0.797677 0.728663
vt 0.831579 0.772635
vt 0.859967 0.819955
vt 0.513234 0.351073
vt 0.467288 0.430655
vt 0.264596 0.260576
vt 0.396894 0.489722
vt 0.310542 0.521152
vt 0.218649 0.521152
vt 0.132298 0.489722
vt 0.061904 0.430655
vt 0.015957 0.351073
vt 0.000000 0.260576
vt 0.015957 0.170079
vt 0.061904 0.090497
vt 0.132298 0.031430
vt 0.218649 0.000000
vt 0.310542 0.000000
vt 0.396893 0.031430
vt 0.467287 0.090497
vt 0.513234 0.170079
vt 0.529191 0.260576
vt 1.000000 0.289391
vt 0.985776 0.369899
vt 0.764596 0.289310
vt 0.944874 0.440687
vt 0.882228 0.493217
vt 0.805393 0.521152
vt 0.723638 0.521124
vt 0.646822 0.493136
vt 0.584213 0.440562
vt 0.543360 0.369747
vt 0.529191 0.289229
vt 0.543415 0.208720
vt 0.584317 0.137933
vt 0.646963 0.085402
vt 0.723798 0.057468
vt 0.805554 0.057496
vt 0.882369 0.085484
vt 0.944978 0.138056
vt 0.985832 0.208873
vn 0.984807 0.173650 0.000000
vn 0.866026 0.499999 0.000000
vn 0.642785 0.766046 0.000000
vn 0.342024 0.939691 0.000000
vn -0.000000 1.000000 0.000000
vn -0.342024 0.939691 0.000000
vn -0.642785 0.766046 0.000000
vn -0.866026 0.499999 0.000000
vn -0.984807 0.173650 0.000000
vn -0.984807 -0.173650 -0.000000
vn -0.866026 -0.499999 -0.000000
vn -0.642785 -0.766046 -0.000000
vn -0.342024 -0.939691 -0.000000
vn -0.000000 -1.000000 -0.000000
vn 0.342024 -0.939691 0.000000
vn 0.642785 -0.766046 0.000000
vn 0.866026 -0.499999 0.000000
vn 0.984807 -0.173650 -0.000000
vn -0.000000 -0.000000 1.000000
vn -0.984809 -0.173641 -0.000000
vn -0.866022 -0.500006 0.000000
vn -0.642795 -0.766038 0.000000
vn -0.342014 -0.939695 0.000000
vn 0.342014 -0.939695 0.000000
vn 0.642795 -0.766038 0.000000
vn 0.866022 -0.500006 -0.000000
vn 0.984809 -0.173641 -0.000000
vn 0.984809 0.173641 -0.000000
vn 0.866022 0.500006 -0.000000
vn 0.642795 0.766038 -0.000000
vn 0.342014 0.939695 -0.000000
vn -0.342014 0.939695 0.000000
vn -0.642787 0.766045 0.000000
vn -0.866025 0.500000 0.000000
vn -0.984809 0.173641 0.000000
vn 0.000000 0.000000 -1.000000
s off
f 1/1/1 2/2/1 3/3/1
f 4/4/1 1/1/1 3/3/1
f 2/2/2 5/5/2 6/6/2
f 6/6/2 3/3/2 2/2/2
f 5/5/3 7/7/3 8/8/3
f 8/8/3 6/6/3 5/5/3
f 7/7/4 9/9/4 10/10/4
f 10/10/4 8/8/4 7/7/4
f 9/9/5 11/11/5 12/12/5
f 12/12/5 10/10/5 9/9/5
f 11/11/6 13/13/6 14/14/6
f 14/14/6 12/12/6 11/11/6
f 13/13/7 15/15/7 16/16/7
f 16/16/7 14/14/7 13/13/7
f 15/15/8 17/17/8 18/18/8
f 18/18/8 16/16/8 15/15/8
f 17/17/9 19/19/9 20/20/9
f 20/20/9 18/18/9 17/17/9
f 19/19/10 21/21/10 22/22/10
f 22/22/10 20/20/10 19/19/10
f 21/21/11 23/23/11 24/24/11
f 24/24/11 22/22/11 21/21/11
f 23/23/12 25/25/12 26/26/12
f 26/26/12 24/24/12 23/23/12
f 25/25/13 27/27/13 28/28/13
f 28/28/13 26/26/13 25/25/13
f 27/27/14 29/29/14 30/30/14
f 30/30/14 28/28/14 27/27/14
f 29/29/15 31/31/15 32/32/15
f 32/32/15 30/30/15 29/29/15
f 31/31/16 33/33/16 34/34/16
f 34/34/16 32/32/16 31/31/16
f 33/33/17 35/35/17 36/36/17
f 36/36/17 34/34/17 33/33/17
f 35/35/18 1/37/18 4/38/18
f 4/38/18 36/36/18 35/35/18
f 4/4/19 3/3/19 37/39/19
f 37/39/19 38/40/19 4/4/19
f 3/3/19 6/6/19 39/41/19
f 39/41/19 37/39/19 3/3/19
f 6/6/19 8/8/19 40/42/19
f 40/42/19 39/41/19 6/6/19
f 8/8/19 10/10/19 41/43/19
f 41/43/19 40/42/19 8/8/19
f 10/10/19 12/12/19 42/44/19
f 42/44/19 41/43/19 10/10/19
f 12/12/19 14/14/19 43/45/19
f 43/45/19 42/44/19 12/12/19
f 14/14/19 16/16/19 44/46/19
f 44/46/19 43/45/19 14/14/19
f 16/16/19 18/18/19 45/47/19
f 45/47/19 44/46/19 16/16/19
f 18/18/19 20/20/19 46/48/19
f 46/48/19 45/47/19 18/18/19
f 20/20/19 22/22/19 47/49/19
f 47/49/19 46/48/19 20/20/19
f 22/22/19 24/24/19 48/50/19
f 48/50/19 47/49/19 22/22/19
f 24/24/19 26/26/19 49/51/19
f 49/51/19 48/50/19 24/24/19
f 26/26/19 28/28/19 50/52/19
f 50/52/19 49/51/19 26/26/19
f 28/28/19 30/30/19 51/53/19
f 51/53/19 50/52/19 28/28/19
f 30/30/19 32/32/19 52/54/19
f 52/54/19 51/53/19 30/30/19
f 32/32/19 34/34/19 53/55/19
f 53/55/19 52/54/19 32/32/19
f 34/34/19 36/36/19 54/56/19
f 54/56/19 53/55/19 34/34/19
f 36/36/19 4/38/19 38/57/19
f 38/57/19 54/56/19 36/36/19
f 38/40/20 37/39/20 55/58/20
f 55/58/20 56/59/20 38/40/20
f 37/39/21 39/41/21 57/60/21
f 57/60/21 55/58/21 37/39/21
f 39/41/22 40/42/22 58/61/22
f 58/61/22 57/60/22 39/41/22
f 40/42/23 41/43/23 59/62/23
f 59/62/23 58/61/23 40/42/23
f 41/43/14 42/44/14 60/63/14
f 60/63/14 59/62/14 41/43/14
f 42/44/24 43/45/24 61/64/24
f 61/64/24 60/63/24 42/44/24
f 43/45/25 44/46/25 62/65/25
f 62/65/25 61/64/25 43/45/25
f 44/46/26 45/47/26 63/66/26
f 63/66/26 62/65/26 44/46/26
f 45/47/27 46/48/27 64/67/27
f 64/67/27 63/66/27 45/47/27
f 46/48/28 47/49/28 65/68/28
f 65/68/28 64/67/28 46/48/28
f 47/49/29 48/50/29 66/69/29
f 66/69/29 65/68/29 47/49/29
f 48/50/30 49/51/30 67/70/30
f 67/70/30 66/69/30 48/50/30
f 49/51/31 50/52/31 68/71/31
f 68/71/31 67/70/31 49/51/31
f 50/52/5 51/53/5 69/72/5
f 69/72/5 68/71/5 50/52/5
f 51/53/32 52/54/32 70/73/32
f 70/73/32 69/72/32 51/53/32
f 52/54/33 53/55/33 71/74/33
f 71/74/33 70/73/33 52/54/33
f 53/55/34 54/56/34 72/75/34
f 72/75/34 71/74/34 53/55/34
f 54/56/35 38/57/35 56/76/35
f 56/76/35 72/75/35 54/56/35
f 35/77/36 33/78/36 73/79/36
f 33/78/36 31/80/36 73/79/36
f 31/80/36 29/81/36 73/79/36
f 29/81/36 27/82/36 73/79/36
f 27/82/36 25/83/36 73/79/36
f 25/83/36 23/84/36 73/79/36
f 23/84/36 21/85/36 73/79/36
f 21/85/36 19/86/36 73/79/36
f 19/86/36 17/87/36 73/79/36
f 17/87/36 15/88/36 73/79/36
f 15/88/36 13/89/36 73/79/36
f 13/89/36 11/90/36 73/79/36
f 11/90/36 9/91/36 73/79/36
f 9/91/36 7/92/36 73/79/36
f 7/92/36 5/93/36 73/79/36
f 5/93/36 2/94/36 73/79/36
f 2/94/36 1/95/36 73/79/36
f 1/95/36 35/77/36 73/79/36
f 56/96/19 55/97/19 74/98/19
f 55/97/19 57/99/19 74/98/19
f 57/99/19 58/100/19 74/98/19
f 58/100/19 59/101/19 74/98/19
f 59/101/19 60/102/19 74/98/19
f 60/102/19 61/103/19 74/98/19
f 61/103/19 62/104/19 74/98/19
f 62/104/19 63/105/19 74/98/19
f 63/105/19 64/106/19 74/98/19
f 64/106/19 65/107/19 74/98/19
f 65/107/19 66/108/19 74/98/19
f 66/108/19 67/109/19 74/98/19
f 67/109/19 68/110/19 74/98/19
f 68/110/19 69/111/19 74/98/19
f 69/111/19 70/112/19 74/98/19
f 70/112/19 71/113/19 74/98/19
f 71/113/19 72/114/19 74/98/19
f 72/114/19 56/96/19 74/98/19
