# Blender v2.62 (sub 0) OBJ File: 'draugths.blend'
# www.blender.org
o Mesh_Board
v 20.000000 -2.500103 20.000099
v 15.000000 -2.500103 20.000099
v 15.000000 -2.500102 15.000100
v 20.000000 -2.500102 15.000100
v 15.000000 -2.500102 10.000100
v 20.000000 -2.500102 10.000100
v 15.000000 -2.500101 5.000100
v 20.000000 -2.500101 5.000100
v 15.000000 -2.500100 0.000100
v 20.000000 -2.500100 0.000100
v 15.000000 -2.500099 -4.999900
v 20.000000 -2.500099 -4.999900
v 15.000000 -2.500098 -9.999900
v 20.000000 -2.500098 -9.999900
v 15.000000 -2.500098 -14.999900
v 20.000000 -2.500098 -14.999900
v 15.000000 -2.500097 -19.999901
v 20.000000 -2.500097 -19.999901
v 10.000000 -2.500103 20.000099
v 10.000000 -2.500102 15.000100
v 10.000000 -2.500102 10.000100
v 10.000000 -2.500101 5.000100
v 10.000000 -2.500100 0.000100
v 10.000000 -2.500099 -4.999900
v 10.000000 -2.500098 -9.999900
v 10.000000 -2.500098 -14.999900
v 10.000000 -2.500097 -19.999901
v 5.000000 -2.500103 20.000099
v 5.000000 -2.500102 15.000100
v 5.000000 -2.500102 10.000100
v 5.000000 -2.500101 5.000100
v 5.000000 -2.500100 0.000100
v 5.000000 -2.500099 -4.999900
v 5.000000 -2.500098 -9.999900
v 5.000000 -2.500098 -14.999900
v 5.000000 -2.500097 -19.999901
v 0.000000 -2.500103 20.000099
v 0.000000 -2.500102 15.000100
v 0.000000 -2.500102 10.000100
v 0.000000 -2.500101 5.000100
v 0.000000 -2.500100 0.000100
v 0.000000 -2.500099 -4.999900
v 0.000000 -2.500098 -9.999900
v 0.000000 -2.500098 -14.999900
v 0.000000 -2.500097 -19.999901
v -5.000000 -2.500103 20.000099
v -5.000000 -2.500102 15.000100
v -5.000000 -2.500102 10.000100
v -5.000000 -2.500101 5.000100
v -5.000000 -2.500100 0.000100
v -5.000000 -2.500099 -4.999900
v -5.000000 -2.500098 -9.999900
v -5.000000 -2.500098 -14.999900
v -5.000000 -2.500097 -19.999901
v -10.000000 -2.500103 20.000099
v -10.000000 -2.500102 15.000100
v -10.000000 -2.500102 10.000100
v -10.000000 -2.500101 5.000100
v -10.000000 -2.500100 0.000100
v -10.000000 -2.500099 -4.999900
v -10.000000 -2.500098 -9.999900
v -10.000000 -2.500098 -14.999900
v -10.000000 -2.500097 -19.999901
v -15.000000 -2.500103 20.000099
v -15.000000 -2.500102 15.000100
v -15.000000 -2.500102 10.000100
v -15.000000 -2.500101 5.000100
v -15.000000 -2.500100 0.000100
v -15.000000 -2.500099 -4.999900
v -15.000000 -2.500098 -9.999900
v -15.000000 -2.500098 -14.999900
v -15.000000 -2.500097 -19.999901
v -20.000000 -2.500103 20.000099
v -20.000000 -2.500102 15.000100
v -20.000000 -2.500102 10.000100
v -20.000000 -2.500101 5.000100
v -20.000000 -2.500100 0.000100
v -20.000000 -2.500099 -4.999900
v -20.000000 -2.500098 -9.999900
v -20.000000 -2.500098 -14.999900
v -20.000000 -2.500097 -19.999901
v 20.000000 -0.000103 20.000099
v 20.000000 -0.000102 15.000100
v 15.000000 -0.000102 15.000100
v 15.000000 -0.000103 20.000099
v 20.000000 -0.000102 10.000100
v 15.000000 -0.000102 10.000100
v 20.000000 -0.000101 5.000100
v 15.000000 -0.000101 5.000100
v 20.000000 -0.000100 0.000100
v 15.000000 -0.000100 0.000100
v 20.000000 -0.000099 -4.999900
v 15.000000 -0.000099 -4.999900
v 20.000000 -0.000098 -9.999900
v 15.000000 -0.000098 -9.999900
v 20.000000 -0.000098 -14.999900
v 15.000000 -0.000098 -14.999900
v 20.000000 -0.000097 -19.999901
v 15.000000 -0.000097 -19.999901
v 10.000000 -0.000102 15.000100
v 10.000000 -0.000103 20.000099
v 10.000000 -0.000102 10.000100
v 10.000000 -0.000101 5.000100
v 10.000000 -0.000100 0.000100
v 10.000000 -0.000099 -4.999900
v 10.000000 -0.000098 -9.999900
v 10.000000 -0.000098 -14.999900
v 10.000000 -0.000097 -19.999901
v 5.000000 -0.000102 15.000100
v 5.000000 -0.000103 20.000099
v 5.000000 -0.000102 10.000100
v 5.000000 -0.000101 5.000100
v 5.000000 -0.000100 0.000100
v 5.000000 -0.000099 -4.999900
v 5.000000 -0.000098 -9.999900
v 5.000000 -0.000098 -14.999900
v 5.000000 -0.000097 -19.999901
v 0.000000 -0.000102 15.000100
v 0.000000 -0.000103 20.000099
v 0.000000 -0.000102 10.000100
v 0.000000 -0.000101 5.000100
v 0.000000 -0.000100 0.000100
v 0.000000 -0.000099 -4.999900
v 0.000000 -0.000098 -9.999900
v 0.000000 -0.000098 -14.999900
v 0.000000 -0.000097 -19.999901
v -5.000000 -0.000102 15.000100
v -5.000000 -0.000103 20.000099
v -5.000000 -0.000102 10.000100
v -5.000000 -0.000101 5.000100
v -5.000000 -0.000100 0.000100
v -5.000000 -0.000099 -4.999900
v -5.000000 -0.000098 -9.999900
v -5.000000 -0.000098 -14.999900
v -5.000000 -0.000097 -19.999901
v -10.000000 -0.000102 15.000100
v -10.000000 -0.000103 20.000099
v -10.000000 -0.000102 10.000100
v -10.000000 -0.000101 5.000100
v -10.000000 -0.000100 0.000100
v -10.000000 -0.000099 -4.999900
v -10.000000 -0.000098 -9.999900
v -10.000000 -0.000098 -14.999900
v -10.000000 -0.000097 -19.999901
v -15.000000 -0.000102 15.000100
v -15.000000 -0.000103 20.000099
v -15.000000 -0.000102 10.000100
v -15.000000 -0.000101 5.000100
v -15.000000 -0.000100 0.000100
v -15.000000 -0.000099 -4.999900
v -15.000000 -0.000098 -9.999900
v -15.000000 -0.000098 -14.999900
v -15.000000 -0.000097 -19.999901
v -20.000000 -0.000102 15.000100
v -20.000000 -0.000103 20.000099
v -20.000000 -0.000102 10.000100
v -20.000000 -0.000101 5.000100
v -20.000000 -0.000100 0.000100
v -20.000000 -0.000099 -4.999900
v -20.000000 -0.000098 -9.999900
v -20.000000 -0.000098 -14.999900
v -20.000000 -0.000097 -19.999901
vt 0.500000 0.499997
vt 0.437500 0.499998
vt 0.437500 0.437498
vt 0.499999 0.437498
vt 0.437499 0.374999
vt 0.499998 0.374998
vt 0.437499 0.312500
vt 0.499998 0.312499
vt 0.437498 0.250000
vt 0.499998 0.250000
vt 0.437498 0.187501
vt 0.499997 0.187501
vt 0.437498 0.125002
vt 0.499997 0.125003
vt 0.437499 0.062504
vt 0.499997 0.062504
vt 0.437499 0.000005
vt 0.499998 0.000006
vt 0.375001 0.499998
vt 0.375000 0.437499
vt 0.375000 0.374999
vt 0.374999 0.312500
vt 0.374999 0.250001
vt 0.374999 0.187501
vt 0.374999 0.125002
vt 0.375000 0.062503
vt 0.375001 0.000004
vt 0.312501 0.499999
vt 0.312501 0.437499
vt 0.312500 0.375000
vt 0.312500 0.312500
vt 0.312500 0.250001
vt 0.312500 0.187501
vt 0.312500 0.125002
vt 0.312501 0.062502
vt 0.312501 0.000003
vt 0.250002 0.499999
vt 0.250001 0.437500
vt 0.250001 0.375000
vt 0.250000 0.312500
vt 0.250000 0.250001
vt 0.250000 0.187501
vt 0.250001 0.125002
vt 0.250001 0.062502
vt 0.250002 0.000002
vt 0.187502 0.500000
vt 0.187501 0.437501
vt 0.187501 0.375001
vt 0.187501 0.312501
vt 0.187500 0.250001
vt 0.187501 0.187501
vt 0.187501 0.125001
vt 0.187501 0.062501
vt 0.187502 0.000001
vt 0.125002 0.500001
vt 0.125001 0.437501
vt 0.125001 0.375001
vt 0.125001 0.312501
vt 0.125001 0.250001
vt 0.125001 0.187501
vt 0.125001 0.125001
vt 0.125001 0.062501
vt 0.125002 0.000001
vt 0.062502 0.500003
vt 0.062501 0.437502
vt 0.062501 0.375001
vt 0.062500 0.312501
vt 0.062500 0.250001
vt 0.062501 0.187501
vt 0.062501 0.125001
vt 0.062501 0.062501
vt 0.062501 0.000000
vt 0.000000 0.500003
vt 0.000000 0.437502
vt 0.000000 0.375001
vt 0.000000 0.312501
vt 0.000000 0.250001
vt 0.000001 0.187501
vt 0.000001 0.125001
vt 0.000001 0.062500
vt 0.000001 0.000000
vt 0.999997 0.000009
vt 0.999996 0.062507
vt 0.937498 0.062506
vt 0.937499 0.000008
vt 0.999995 0.125005
vt 0.937497 0.125004
vt 0.999994 0.187503
vt 0.937496 0.187502
vt 0.999994 0.250000
vt 0.937496 0.250000
vt 0.999994 0.312497
vt 0.937496 0.312497
vt 0.999995 0.374994
vt 0.937497 0.374995
vt 0.999996 0.437492
vt 0.937498 0.437493
vt 0.999997 0.499990
vt 0.937499 0.499992
vt 0.875000 0.062505
vt 0.875001 0.000007
vt 0.874999 0.125004
vt 0.874998 0.187502
vt 0.874998 0.250000
vt 0.874998 0.312498
vt 0.874999 0.374996
vt 0.875000 0.437495
vt 0.875001 0.499993
vt 0.812501 0.062504
vt 0.812502 0.000006
vt 0.812501 0.125003
vt 0.812500 0.187502
vt 0.812500 0.250000
vt 0.812500 0.312498
vt 0.812500 0.374997
vt 0.812501 0.437496
vt 0.812503 0.499995
vt 0.750003 0.062503
vt 0.750004 0.000005
vt 0.750002 0.125002
vt 0.750001 0.187501
vt 0.750001 0.250000
vt 0.750001 0.312499
vt 0.750001 0.374998
vt 0.750002 0.437497
vt 0.750004 0.499996
vt 0.687504 0.062502
vt 0.687505 0.000004
vt 0.687503 0.125001
vt 0.687502 0.187500
vt 0.687502 0.249999
vt 0.687502 0.312499
vt 0.687502 0.374998
vt 0.687503 0.437498
vt 0.687504 0.499998
vt 0.625005 0.062501
vt 0.625006 0.000002
vt 0.625004 0.125000
vt 0.625003 0.187499
vt 0.625002 0.249999
vt 0.625002 0.312498
vt 0.625002 0.374999
vt 0.625002 0.437499
vt 0.625003 0.500000
vt 0.562506 0.062500
vt 0.562507 0.000001
vt 0.562505 0.124999
vt 0.562504 0.187498
vt 0.562503 0.249998
vt 0.562502 0.312498
vt 0.562501 0.374999
vt 0.562501 0.437500
vt 0.562502 0.500001
vt 0.500007 0.062499
vt 0.500008 0.000000
vt 0.500006 0.124998
vt 0.500004 0.187497
vt 0.500003 0.249997
vt 0.500001 0.312497
vt 0.500000 0.374998
vt 0.500000 0.437500
vt 0.500000 0.500002
vt 0.500001 1.000000
vt 0.500001 0.937500
vt 0.531251 0.937500
vt 0.531251 1.000000
vt 0.500001 0.875001
vt 0.531250 0.875001
vt 0.500000 0.812501
vt 0.531250 0.812501
vt 0.500000 0.750001
vt 0.531250 0.750001
vt 0.500000 0.687501
vt 0.531250 0.687501
vt 0.500000 0.625002
vt 0.531249 0.625002
vt 0.500000 0.562502
vt 0.531249 0.562502
vt 0.531249 0.500002
vt 0.499998 0.531252
vt 0.437501 0.531252
vt 0.437500 0.500003
vt 0.499998 0.500003
vt 0.375003 0.531253
vt 0.375003 0.500004
vt 0.312505 0.531254
vt 0.312504 0.500005
vt 0.250006 0.531257
vt 0.250004 0.500007
vt 0.187506 0.531260
vt 0.187504 0.500010
vt 0.125005 0.531265
vt 0.125003 0.500014
vt 0.062504 0.531270
vt 0.062501 0.500019
vt 0.000003 0.531275
vt 0.000000 0.500025
vt 0.562501 0.500002
vt 0.562501 0.562502
vt 0.531251 0.562502
vt 0.531251 0.500002
vt 0.562501 0.625002
vt 0.531252 0.625002
vt 0.562502 0.687502
vt 0.531252 0.687502
vt 0.562502 0.750002
vt 0.531252 0.750002
vt 0.562502 0.812502
vt 0.531252 0.812502
vt 0.562501 0.875001
vt 0.531252 0.875001
vt 0.562501 0.937501
vt 0.531251 0.937501
vt 0.562501 1.000000
vt 0.000000 0.531287
vt 0.062499 0.531287
vt 0.062499 0.562536
vt 0.000000 0.562536
vt 0.124998 0.531287
vt 0.124998 0.562536
vt 0.187497 0.531286
vt 0.187497 0.562536
vt 0.249997 0.531285
vt 0.249997 0.562535
vt 0.312497 0.531283
vt 0.312498 0.562533
vt 0.374997 0.531281
vt 0.374999 0.562531
vt 0.437498 0.531278
vt 0.437499 0.562528
vt 0.499998 0.531275
vt 0.499999 0.562525
vn 0.000000 -1.000000 -0.000000
vn -0.000000 1.000000 0.000000
vn 1.000000 0.000000 0.000000
vn 0.000000 0.000000 -1.000000
vn -1.000000 -0.000000 -0.000000
vn 0.000000 0.000000 1.000000
s off
f 1/1/1 2/2/1 3/3/1
f 4/4/1 1/1/1 3/3/1
f 4/4/1 3/3/1 5/5/1
f 5/5/1 6/6/1 4/4/1
f 6/6/1 5/5/1 7/7/1
f 7/7/1 8/8/1 6/6/1
f 8/8/1 7/7/1 9/9/1
f 9/9/1 10/10/1 8/8/1
f 10/10/1 9/9/1 11/11/1
f 11/11/1 12/12/1 10/10/1
f 12/12/1 11/11/1 13/13/1
f 13/13/1 14/14/1 12/12/1
f 14/14/1 13/13/1 15/15/1
f 15/15/1 16/16/1 14/14/1
f 16/16/1 15/15/1 17/17/1
f 17/17/1 18/18/1 16/16/1
f 2/2/1 19/19/1 20/20/1
f 20/20/1 3/3/1 2/2/1
f 3/3/1 20/20/1 21/21/1
f 21/21/1 5/5/1 3/3/1
f 5/5/1 21/21/1 22/22/1
f 22/22/1 7/7/1 5/5/1
f 7/7/1 22/22/1 23/23/1
f 23/23/1 9/9/1 7/7/1
f 9/9/1 23/23/1 24/24/1
f 24/24/1 11/11/1 9/9/1
f 11/11/1 24/24/1 25/25/1
f 25/25/1 13/13/1 11/11/1
f 13/13/1 25/25/1 26/26/1
f 26/26/1 15/15/1 13/13/1
f 15/15/1 26/26/1 27/27/1
f 27/27/1 17/17/1 15/15/1
f 19/19/1 28/28/1 29/29/1
f 29/29/1 20/20/1 19/19/1
f 20/20/1 29/29/1 30/30/1
f 30/30/1 21/21/1 20/20/1
f 21/21/1 30/30/1 31/31/1
f 31/31/1 22/22/1 21/21/1
f 22/22/1 31/31/1 32/32/1
f 32/32/1 23/23/1 22/22/1
f 23/23/1 32/32/1 33/33/1
f 33/33/1 24/24/1 23/23/1
f 24/24/1 33/33/1 34/34/1
f 34/34/1 25/25/1 24/24/1
f 25/25/1 34/34/1 35/35/1
f 35/35/1 26/26/1 25/25/1
f 26/26/1 35/35/1 36/36/1
f 36/36/1 27/27/1 26/26/1
f 28/28/1 37/37/1 38/38/1
f 38/38/1 29/29/1 28/28/1
f 29/29/1 38/38/1 39/39/1
f 39/39/1 30/30/1 29/29/1
f 30/30/1 39/39/1 40/40/1
f 40/40/1 31/31/1 30/30/1
f 31/31/1 40/40/1 41/41/1
f 41/41/1 32/32/1 31/31/1
f 32/32/1 41/41/1 42/42/1
f 42/42/1 33/33/1 32/32/1
f 33/33/1 42/42/1 43/43/1
f 43/43/1 34/34/1 33/33/1
f 34/34/1 43/43/1 44/44/1
f 44/44/1 35/35/1 34/34/1
f 35/35/1 44/44/1 45/45/1
f 45/45/1 36/36/1 35/35/1
f 37/37/1 46/46/1 47/47/1
f 47/47/1 38/38/1 37/37/1
f 38/38/1 47/47/1 48/48/1
f 48/48/1 39/39/1 38/38/1
f 39/39/1 48/48/1 49/49/1
f 49/49/1 40/40/1 39/39/1
f 40/40/1 49/49/1 50/50/1
f 50/50/1 41/41/1 40/40/1
f 41/41/1 50/50/1 51/51/1
f 51/51/1 42/42/1 41/41/1
f 42/42/1 51/51/1 52/52/1
f 52/52/1 43/43/1 42/42/1
f 43/43/1 52/52/1 53/53/1
f 53/53/1 44/44/1 43/43/1
f 44/44/1 53/53/1 54/54/1
f 54/54/1 45/45/1 44/44/1
f 46/46/1 55/55/1 56/56/1
f 56/56/1 47/47/1 46/46/1
f 47/47/1 56/56/1 57/57/1
f 57/57/1 48/48/1 47/47/1
f 48/48/1 57/57/1 58/58/1
f 58/58/1 49/49/1 48/48/1
f 49/49/1 58/58/1 59/59/1
f 59/59/1 50/50/1 49/49/1
f 50/50/1 59/59/1 60/60/1
f 60/60/1 51/51/1 50/50/1
f 51/51/1 60/60/1 61/61/1
f 61/61/1 52/52/1 51/51/1
f 52/52/1 61/61/1 62/62/1
f 62/62/1 53/53/1 52/52/1
f 53/53/1 62/62/1 63/63/1
f 63/63/1 54/54/1 53/53/1
f 55/55/1 64/64/1 65/65/1
f 65/65/1 56/56/1 55/55/1
f 56/56/1 65/65/1 66/66/1
f 66/66/1 57/57/1 56/56/1
f 57/57/1 66/66/1 67/67/1
f 67/67/1 58/58/1 57/57/1
f 58/58/1 67/67/1 68/68/1
f 68/68/1 59/59/1 58/58/1
f 59/59/1 68/68/1 69/69/1
f 69/69/1 60/60/1 59/59/1
f 60/60/1 69/69/1 70/70/1
f 70/70/1 61/61/1 60/60/1
f 61/61/1 70/70/1 71/71/1
f 71/71/1 62/62/1 61/61/1
f 62/62/1 71/71/1 72/72/1
f 72/72/1 63/63/1 62/62/1
f 64/64/1 73/73/1 74/74/1
f 74/74/1 65/65/1 64/64/1
f 65/65/1 74/74/1 75/75/1
f 75/75/1 66/66/1 65/65/1
f 66/66/1 75/75/1 76/76/1
f 76/76/1 67/67/1 66/66/1
f 67/67/1 76/76/1 77/77/1
f 77/77/1 68/68/1 67/67/1
f 68/68/1 77/77/1 78/78/1
f 78/78/1 69/69/1 68/68/1
f 69/69/1 78/78/1 79/79/1
f 79/79/1 70/70/1 69/69/1
f 70/70/1 79/79/1 80/80/1
f 80/80/1 71/71/1 70/70/1
f 71/71/1 80/80/1 81/81/1
f 81/81/1 72/72/1 71/71/1
f 82/82/2 83/83/2 84/84/2
f 84/84/2 85/85/2 82/82/2
f 83/83/2 86/86/2 87/87/2
f 87/87/2 84/84/2 83/83/2
f 86/86/2 88/88/2 89/89/2
f 89/89/2 87/87/2 86/86/2
f 88/88/2 90/90/2 91/91/2
f 91/91/2 89/89/2 88/88/2
f 90/90/2 92/92/2 93/93/2
f 93/93/2 91/91/2 90/90/2
f 92/92/2 94/94/2 95/95/2
f 95/95/2 93/93/2 92/92/2
f 94/94/2 96/96/2 97/97/2
f 97/97/2 95/95/2 94/94/2
f 96/96/2 98/98/2 99/99/2
f 99/99/2 97/97/2 96/96/2
f 85/85/2 84/84/2 100/100/2
f 100/100/2 101/101/2 85/85/2
f 84/84/2 87/87/2 102/102/2
f 102/102/2 100/100/2 84/84/2
f 87/87/2 89/89/2 103/103/2
f 103/103/2 102/102/2 87/87/2
f 89/89/2 91/91/2 104/104/2
f 104/104/2 103/103/2 89/89/2
f 91/91/2 93/93/2 105/105/2
f 105/105/2 104/104/2 91/91/2
f 93/93/2 95/95/2 106/106/2
f 106/106/2 105/105/2 93/93/2
f 95/95/2 97/97/2 107/107/2
f 107/107/2 106/106/2 95/95/2
f 97/97/2 99/99/2 108/108/2
f 108/108/2 107/107/2 97/97/2
f 101/101/2 100/100/2 109/109/2
f 109/109/2 110/110/2 101/101/2
f 100/100/2 102/102/2 111/111/2
f 111/111/2 109/109/2 100/100/2
f 102/102/2 103/103/2 112/112/2
f 112/112/2 111/111/2 102/102/2
f 103/103/2 104/104/2 113/113/2
f 113/113/2 112/112/2 103/103/2
f 104/104/2 105/105/2 114/114/2
f 114/114/2 113/113/2 104/104/2
f 105/105/2 106/106/2 115/115/2
f 115/115/2 114/114/2 105/105/2
f 106/106/2 107/107/2 116/116/2
f 116/116/2 115/115/2 106/106/2
f 107/107/2 108/108/2 117/117/2
f 117/117/2 116/116/2 107/107/2
f 110/110/2 109/109/2 118/118/2
f 118/118/2 119/119/2 110/110/2
f 109/109/2 111/111/2 120/120/2
f 120/120/2 118/118/2 109/109/2
f 111/111/2 112/112/2 121/121/2
f 121/121/2 120/120/2 111/111/2
f 112/112/2 113/113/2 122/122/2
f 122/122/2 121/121/2 112/112/2
f 113/113/2 114/114/2 123/123/2
f 123/123/2 122/122/2 113/113/2
f 114/114/2 115/115/2 124/124/2
f 124/124/2 123/123/2 114/114/2
f 115/115/2 116/116/2 125/125/2
f 125/125/2 124/124/2 115/115/2
f 116/116/2 117/117/2 126/126/2
f 126/126/2 125/125/2 116/116/2
f 119/119/2 118/118/2 127/127/2
f 127/127/2 128/128/2 119/119/2
f 118/118/2 120/120/2 129/129/2
f 129/129/2 127/127/2 118/118/2
f 120/120/2 121/121/2 130/130/2
f 130/130/2 129/129/2 120/120/2
f 121/121/2 122/122/2 131/131/2
f 131/131/2 130/130/2 121/121/2
f 122/122/2 123/123/2 132/132/2
f 132/132/2 131/131/2 122/122/2
f 123/123/2 124/124/2 133/133/2
f 133/133/2 132/132/2 123/123/2
f 124/124/2 125/125/2 134/134/2
f 134/134/2 133/133/2 124/124/2
f 125/125/2 126/126/2 135/135/2
f 135/135/2 134/134/2 125/125/2
f 128/128/2 127/127/2 136/136/2
f 136/136/2 137/137/2 128/128/2
f 127/127/2 129/129/2 138/138/2
f 138/138/2 136/136/2 127/127/2
f 129/129/2 130/130/2 139/139/2
f 139/139/2 138/138/2 129/129/2
f 130/130/2 131/131/2 140/140/2
f 140/140/2 139/139/2 130/130/2
f 131/131/2 132/132/2 141/141/2
f 141/141/2 140/140/2 131/131/2
f 132/132/2 133/133/2 142/142/2
f 142/142/2 141/141/2 132/132/2
f 133/133/2 134/134/2 143/143/2
f 143/143/2 142/142/2 133/133/2
f 134/134/2 135/135/2 144/144/2
f 144/144/2 143/143/2 134/134/2
f 137/137/2 136/136/2 145/145/2
f 145/145/2 146/146/2 137/137/2
f 136/136/2 138/138/2 147/147/2
f 147/147/2 145/145/2 136/136/2
f 138/138/2 139/139/2 148/148/2
f 148/148/2 147/147/2 138/138/2
f 139/139/2 140/140/2 149/149/2
f 149/149/2 148/148/2 139/139/2
f 140/140/2 141/141/2 150/150/2
f 150/150/2 149/149/2 140/140/2
f 141/141/2 142/142/2 151/151/2
f 151/151/2 150/150/2 141/141/2
f 142/142/2 143/143/2 152/152/2
f 152/152/2 151/151/2 142/142/2
f 143/143/2 144/144/2 153/153/2
f 153/153/2 152/152/2 143/143/2
f 146/146/2 145/145/2 154/154/2
f 154/154/2 155/155/2 146/146/2
f 145/145/2 147/147/2 156/156/2
f 156/156/2 154/154/2 145/145/2
f 147/147/2 148/148/2 157/157/2
f 157/157/2 156/156/2 147/147/2
f 148/148/2 149/149/2 158/158/2
f 158/158/2 157/157/2 148/148/2
f 149/149/2 150/150/2 159/159/2
f 159/159/2 158/158/2 149/149/2
f 150/150/2 151/151/2 160/160/2
f 160/160/2 159/159/2 150/150/2
f 151/151/2 152/152/2 161/161/2
f 161/161/2 160/160/2 151/151/2
f 152/152/2 153/153/2 162/162/2
f 162/162/2 161/161/2 152/152/2
f 1/163/3 4/164/3 83/165/3
f 82/166/3 1/163/3 83/165/3
f 4/164/3 6/167/3 86/168/3
f 86/168/3 83/165/3 4/164/3
f 6/167/3 8/169/3 88/170/3
f 88/170/3 86/168/3 6/167/3
f 8/169/3 10/171/3 90/172/3
f 90/172/3 88/170/3 8/169/3
f 10/171/3 12/173/3 92/174/3
f 92/174/3 90/172/3 10/171/3
f 12/173/3 14/175/3 94/176/3
f 94/176/3 92/174/3 12/173/3
f 14/175/3 16/177/3 96/178/3
f 96/178/3 94/176/3 14/175/3
f 16/177/3 18/162/3 98/179/3
f 98/179/3 96/178/3 16/177/3
f 18/180/4 17/181/4 99/182/4
f 99/182/4 98/183/4 18/180/4
f 17/181/4 27/184/4 108/185/4
f 108/185/4 99/182/4 17/181/4
f 27/184/4 36/186/4 117/187/4
f 117/187/4 108/185/4 27/184/4
f 36/186/4 45/188/4 126/189/4
f 126/189/4 117/187/4 36/186/4
f 45/188/4 54/190/4 135/191/4
f 135/191/4 126/189/4 45/188/4
f 54/190/4 63/192/4 144/193/4
f 144/193/4 135/191/4 54/190/4
f 63/192/4 72/194/4 153/195/4
f 153/195/4 144/193/4 63/192/4
f 72/194/4 81/196/4 162/197/4
f 162/197/4 153/195/4 72/194/4
f 81/198/5 80/199/5 161/200/5
f 161/200/5 162/201/5 81/198/5
f 80/199/5 79/202/5 160/203/5
f 160/203/5 161/200/5 80/199/5
f 79/202/5 78/204/5 159/205/5
f 159/205/5 160/203/5 79/202/5
f 78/204/5 77/206/5 158/207/5
f 158/207/5 159/205/5 78/204/5
f 77/206/5 76/208/5 157/209/5
f 157/209/5 158/207/5 77/206/5
f 76/208/5 75/210/5 156/211/5
f 156/211/5 157/209/5 76/208/5
f 75/210/5 74/212/5 154/213/5
f 154/213/5 156/211/5 75/210/5
f 74/212/5 73/214/5 155/166/5
f 155/166/5 154/213/5 74/212/5
f 73/215/6 64/216/6 146/217/6
f 146/217/6 155/218/6 73/215/6
f 64/216/6 55/219/6 137/220/6
f 137/220/6 146/217/6 64/216/6
f 55/219/6 46/221/6 128/222/6
f 128/222/6 137/220/6 55/219/6
f 46/221/6 37/223/6 119/224/6
f 119/224/6 128/222/6 46/221/6
f 37/223/6 28/225/6 110/226/6
f 110/226/6 119/224/6 37/223/6
f 28/225/6 19/227/6 101/228/6
f 101/228/6 110/226/6 28/225/6
f 19/227/6 2/229/6 85/230/6
f 85/230/6 101/228/6 19/227/6
f 2/229/6 1/231/6 82/232/6
f 82/232/6 85/230/6 2/229/6
