# Blender v2.62 (sub 0) OBJ File: 'metronome.blend'
# www.blender.org
o Mesh_Metronome
v -5.000000 -0.000000 2.193900
v -2.468700 -0.000000 2.193900
v -2.468700 -0.000001 5.000000
v -5.000000 -0.000001 5.000000
v -2.468700 5.500000 4.086201
v -4.086200 5.500000 4.086201
v 5.000000 -0.000000 2.193900
v 4.086200 5.500000 2.193901
v 4.086200 5.500000 4.086201
v 5.000000 -0.000001 5.000000
v 2.436900 0.000001 -5.000000
v 2.436900 5.500000 -4.086199
v 4.086200 5.500000 -4.086199
v 5.000000 0.000001 -5.000000
v -5.000000 0.000000 -1.650300
v -4.086200 5.500000 -1.650299
v -4.086200 5.500000 -4.086199
v -5.000000 0.000001 -5.000000
v 3.246000 10.556301 -3.245998
v 3.246000 10.556300 -1.650298
v 4.086200 5.500000 -1.650299
v -2.468700 5.500000 -4.086199
v -3.246000 10.556301 -3.245998
v -2.468700 10.556301 -3.245998
v 1.676900 20.000000 -1.650297
v 0.000000 20.000000 -1.650297
v 0.000000 20.000000 0.515803
v 1.676900 20.000000 0.515803
v -1.676900 20.000000 -1.650297
v -2.468700 15.234400 -1.650298
v -2.468700 15.234400 0.515803
v -1.676900 20.000000 0.515803
v -2.468700 0.398299 3.720200
v -2.468700 0.398300 2.193900
v -3.727000 0.398300 2.193900
v -3.727000 0.398299 3.720200
v 3.246000 10.556300 0.515802
v 2.436900 10.556300 0.515802
v 2.436900 5.500000 0.515801
v 4.086200 5.500000 0.515801
v -2.468700 5.500000 3.720201
v -3.727000 5.500000 3.720201
v 3.727000 5.500000 2.193901
v 3.727000 5.500000 3.720201
v 2.436900 5.500000 0.524001
v 3.727000 5.500000 0.524001
v -4.086200 5.500000 2.193901
v -3.727000 5.500000 2.193901
v -3.727000 5.500000 0.524001
v -4.086200 5.500000 0.515801
v 3.727000 0.398200 2.193900
v 3.727000 0.398199 3.720200
v 2.436900 0.398200 0.524000
v 3.727000 0.398200 0.524000
v -3.727000 0.398300 0.524000
v 2.436900 0.000000 -1.650300
v 0.000000 0.000000 -1.650300
v 0.000000 0.000001 -5.000000
v 2.436900 -0.000001 5.000000
v 2.436900 5.500000 4.086201
v 0.000000 5.500000 4.086201
v 0.000000 -0.000001 5.000000
v -2.468700 0.000001 -5.000000
v 0.000000 5.500000 -4.086199
v 2.436900 15.425800 -2.436897
v 2.436900 15.224500 -2.470398
v 0.000000 15.224500 -2.470398
v 1.676900 20.000000 -1.676897
v 0.000000 20.000000 -1.676897
v -1.676900 20.000000 -1.676897
v 2.436900 0.398199 3.720200
v 2.436900 0.398200 2.193900
v 0.000000 0.398300 2.193900
v 0.000000 0.398299 3.720200
v -2.468700 15.224500 0.515803
v 0.000000 15.224500 0.515803
v 2.436900 5.500000 3.720201
v 0.000000 5.500000 3.720201
v -2.468700 5.500000 0.515801
v -2.468700 5.500000 0.524001
v 0.000000 5.500000 0.524001
v 0.000000 5.500000 0.515801
v -2.468700 0.398300 0.524000
v 0.000000 0.398200 0.524000
v -2.468700 0.000000 -1.650300
v 5.000000 0.000000 -1.650300
v 2.436900 15.425800 0.515803
v 2.436900 15.425800 -1.650298
v -2.468700 15.234400 -2.468698
v 2.436900 -0.000000 2.193900
v 2.436900 15.224500 0.515803
v 2.470400 15.224500 -2.470398
v 2.470400 15.224500 0.515803
v 2.470400 15.224500 -1.650298
v 0.000000 -0.000000 2.193900
v -2.468700 15.224500 -2.470398
v -2.470400 15.224500 -1.650298
v -2.470400 15.224500 0.515803
v -2.470400 15.224500 -2.470398
v 0.000000 10.556301 -3.245998
v 2.436900 10.556301 -3.245998
v 0.000000 10.556300 0.515802
v -2.468700 10.556300 0.515802
v -3.246000 10.556300 0.515802
v -3.246000 10.556300 -1.650298
vt 0.310011 0.142341
vt 0.280740 0.199454
vt 0.204117 0.175086
vt 0.235796 0.092520
vt 0.011628 0.146467
vt 0.021147 0.087439
vt 0.291076 0.382707
vt 0.407202 0.481325
vt 0.368737 0.526473
vt 0.209416 0.419430
vt 0.391748 0.294077
vt 0.466920 0.311668
vt 0.461014 0.338198
vt 0.390771 0.315810
vt 0.372810 0.188845
vt 0.470233 0.154401
vt 0.469961 0.203734
vt 0.398172 0.216416
vt 0.557476 0.340524
vt 0.567648 0.374210
vt 0.454217 0.385815
vt 0.471909 0.230504
vt 0.566769 0.215947
vt 0.565037 0.230454
vt 0.664504 0.286889
vt 0.664262 0.283116
vt 0.669143 0.282738
vt 0.669126 0.286805
vt 0.664089 0.279337
vt 0.650674 0.242451
vt 0.690457 0.232610
vt 0.668494 0.278870
vt 0.227780 0.526479
vt 0.227773 0.547068
vt 0.210799 0.547062
vt 0.210806 0.526473
vt 0.833110 0.371651
vt 0.831837 0.347598
vt 0.991263 0.324149
vt 0.999923 0.386057
vt 0.021819 0.526473
vt 0.021819 0.531411
vt 0.004845 0.531411
vt 0.000000 0.526473
vt 0.450501 0.550328
vt 0.445972 0.550328
vt 0.445972 0.531087
vt 0.450501 0.526473
vt 0.996492 0.323195
vt 1.000000 0.357803
vt 0.381658 0.548076
vt 0.377033 0.548076
vt 0.377033 0.526579
vt 0.381658 0.526473
vt 0.021819 0.600230
vt 0.004845 0.600230
vt 0.381658 0.550328
vt 0.381658 0.531087
vt 0.193389 0.595294
vt 0.193389 0.526473
vt 0.210792 0.526473
vt 0.210792 0.595294
vt 0.311357 0.548076
vt 0.311357 0.526579
vt 0.347808 0.301075
vt 0.346264 0.263080
vt 0.393374 0.266343
vt 0.193924 0.329400
vt 0.000000 0.328751
vt 0.002467 0.238690
vt 0.192467 0.252631
vt 0.396608 0.238392
vt 0.471651 0.271478
vt 0.642503 0.315809
vt 0.638732 0.316804
vt 0.631198 0.283600
vt 0.664006 0.286797
vt 0.663685 0.283147
vt 0.663607 0.279450
vt 0.293954 0.526501
vt 0.293947 0.547090
vt 0.261075 0.547079
vt 0.261082 0.526490
vt 0.695867 0.226408
vt 0.719288 0.278684
vt 0.669020 0.279535
vt 0.669594 0.282730
vt 0.087993 0.526473
vt 0.087993 0.531411
vt 0.055121 0.531411
vt 0.055121 0.526473
vt 0.984708 0.203212
vt 0.990108 0.203045
vt 0.992003 0.264230
vt 0.984306 0.265115
vt 0.087993 0.600231
vt 0.055121 0.600230
vt 0.127215 0.595294
vt 0.127215 0.526475
vt 0.160517 0.526473
vt 0.160517 0.595294
vt 0.353525 0.225820
vt 0.364299 0.338915
vt 0.446825 0.051876
vt 0.466381 0.094911
vt 0.669135 0.286916
vt 0.693884 0.333104
vt 0.651054 0.323821
vt 0.640986 0.249184
vt 0.271798 0.318025
vt 0.668857 0.279572
vt 0.438436 0.441143
vt 0.261067 0.569605
vt 0.227766 0.569594
vt 0.450501 0.571483
vt 0.445972 0.571380
vt 0.381658 0.572437
vt 0.377033 0.567725
vt 0.381658 0.571380
vt 0.311357 0.567725
vt 0.311343 0.569622
vt 0.293940 0.569616
vt 0.311350 0.547095
vt 0.411450 0.000000
vt 0.669733 0.286723
vt 0.702829 0.342721
vt 0.000000 0.388985
vt 0.638871 0.317474
vt 0.311357 0.526506
vt 0.110241 0.526473
vt 0.105396 0.531411
vt 0.105396 0.600231
vt 0.701681 0.345165
vt 0.649135 0.327834
vt 0.269104 0.258208
vt 0.639840 0.248139
vt 0.650043 0.240605
vt 0.694994 0.224831
vt 0.982819 0.141531
vt 0.987509 0.168363
vt 0.110241 0.595294
vt 0.110241 0.526475
vt 0.639974 0.247897
vt 0.210792 0.569589
vt 0.559541 0.278185
vt 0.557633 0.325005
vt 0.831316 0.274225
vt 0.824510 0.202976
vt 0.587673 0.429698
vt 0.607579 0.138059
vt 0.581261 0.185768
vt 0.821816 0.179655
vn -0.000000 -1.000000 -0.000000
vn -0.000000 0.163898 0.986477
vn 0.986477 0.163899 0.000000
vn 0.000000 0.163899 -0.986477
vn -0.986477 0.163899 0.000000
vn 0.986474 0.163921 0.000000
vn 0.986473 0.163921 -0.000000
vn 0.000000 0.163921 -0.986474
vn -0.000000 1.000000 0.000000
vn -0.986477 0.163902 0.000000
vn 0.000000 -0.000000 1.000000
vn 0.000000 0.000000 -1.000000
vn -1.000000 0.000000 0.000000
vn 1.000000 0.000000 -0.000000
vn 0.000000 0.164162 -0.986433
vn 0.000022 0.163906 -0.986476
vn 0.000000 0.163913 -0.986475
vn 0.000041 1.000000 0.000000
vn 0.986477 0.163902 -0.000000
vn 0.000000 1.000000 -0.000060
vn 0.000001 0.000000 1.000000
vn 0.986434 0.164161 -0.000000
vn 0.000041 1.000000 -0.000060
vn -0.033075 0.169158 -0.985034
vn -0.985572 0.169254 0.000000
vn 0.000000 0.163921 -0.986473
vn -0.986473 0.163921 0.000000
vn -0.986474 0.163921 0.000000
vn 0.000000 0.169254 -0.985572
s off
f 1/1/1 2/2/1 3/3/1
f 4/4/1 1/1/1 3/3/1
f 3/3/2 5/5/2 6/6/2
f 6/6/2 4/4/2 3/3/2
f 7/7/3 8/8/3 9/9/3
f 9/9/3 10/10/3 7/7/3
f 11/11/4 12/12/4 13/13/4
f 13/13/4 14/14/4 11/11/4
f 15/15/5 16/16/5 17/17/5
f 17/17/5 18/18/5 15/15/5
f 19/19/6 20/20/6 21/21/6
f 21/21/7 13/13/7 19/19/7
f 22/22/8 17/17/8 23/23/8
f 23/23/8 24/24/8 22/22/8
f 25/25/9 26/26/9 27/27/9
f 27/27/9 28/28/9 25/25/9
f 29/29/10 30/30/10 31/31/10
f 31/31/10 32/32/10 29/29/10
f 33/33/9 34/34/9 35/35/9
f 35/35/9 36/36/9 33/33/9
f 37/37/11 38/38/11 39/39/11
f 39/39/11 40/40/11 37/37/11
f 5/41/9 41/42/9 42/43/9
f 42/43/9 6/44/9 5/41/9
f 8/45/9 43/46/9 44/47/9
f 44/47/9 9/48/9 8/45/9
f 39/39/9 45/49/9 46/50/9
f 46/50/9 40/40/9 39/39/9
f 47/51/9 48/52/9 49/53/9
f 49/53/9 50/54/9 47/51/9
f 41/42/12 33/55/12 36/56/12
f 36/56/12 42/43/12 41/42/12
f 43/46/13 51/57/13 52/58/13
f 52/58/13 44/47/13 43/46/13
f 45/59/11 53/60/11 54/61/11
f 54/61/11 46/62/11 45/59/11
f 48/52/14 35/63/14 55/64/14
f 55/64/14 49/53/14 48/52/14
f 11/11/1 56/65/1 57/66/1
f 57/66/1 58/67/1 11/11/1
f 59/68/2 60/69/2 61/70/2
f 61/70/2 62/71/2 59/68/2
f 63/72/4 22/22/4 64/73/4
f 64/73/4 58/67/4 63/72/4
f 65/74/15 66/75/15 67/76/15
f 68/77/16 65/74/16 67/76/16
f 69/78/17 68/77/17 67/76/17
f 70/79/9 29/29/9 26/26/9
f 26/26/9 69/78/9 70/79/9
f 71/80/18 72/81/18 73/82/18
f 73/82/18 74/83/18 71/80/18
f 31/31/11 75/84/11 76/85/11
f 32/86/11 31/31/11 76/85/11
f 27/87/11 32/86/11 76/85/11
f 60/88/9 77/89/9 78/90/9
f 78/90/9 61/91/9 60/88/9
f 79/92/9 80/93/9 81/94/9
f 81/94/9 82/95/9 79/92/9
f 77/89/12 71/96/12 74/97/12
f 74/97/12 78/90/12 77/89/12
f 80/98/11 83/99/11 84/100/11
f 84/100/11 81/101/11 80/98/11
f 18/18/1 63/72/1 85/102/1
f 85/102/1 15/15/1 18/18/1
f 86/103/3 14/14/3 13/13/3
f 13/13/3 21/21/3 86/103/3
f 15/15/5 1/1/5 47/104/5
f 15/15/5 47/104/5 50/105/5
f 15/15/5 50/105/5 16/16/5
f 28/106/19 87/107/19 88/108/19
f 88/108/19 25/25/19 28/106/19
f 68/77/9 69/78/9 26/26/9
f 26/26/9 25/25/9 68/77/9
f 70/79/10 89/109/10 30/30/10
f 30/30/10 29/29/10 70/79/10
f 7/7/1 90/110/1 56/65/1
f 56/65/1 86/103/1 7/7/1
f 32/111/9 27/27/9 26/26/9
f 26/26/9 29/29/9 32/111/9
f 15/15/1 85/102/1 2/2/1
f 2/2/1 1/1/1 15/15/1
f 7/7/3 86/103/3 21/21/3
f 7/7/3 21/21/3 40/112/3
f 7/7/3 40/112/3 8/8/3
f 84/113/18 83/114/18 34/34/18
f 34/34/20 73/82/20 84/113/20
f 40/115/9 46/116/9 43/46/9
f 43/46/9 8/45/9 40/115/9
f 47/51/9 6/117/9 42/118/9
f 42/118/9 48/52/9 47/51/9
f 46/116/13 54/119/13 51/57/13
f 51/57/13 43/46/13 46/116/13
f 42/118/14 36/120/14 35/63/14
f 35/63/14 48/52/14 42/118/14
f 54/121/9 53/122/9 72/81/9
f 72/81/9 51/123/9 54/121/9
f 1/1/5 4/4/5 6/124/5
f 47/104/5 1/1/5 6/124/5
f 10/10/1 59/68/1 90/110/1
f 90/110/1 7/7/1 10/10/1
f 58/67/4 64/73/4 12/12/4
f 12/12/4 11/11/4 58/67/4
f 68/77/19 25/25/19 88/108/19
f 88/108/19 65/74/19 68/77/19
f 28/125/11 27/87/11 76/85/11
f 28/125/11 76/85/11 91/126/11
f 87/107/21 28/106/21 91/126/21
f 82/95/9 81/94/9 45/49/9
f 45/49/9 39/39/9 82/95/9
f 81/101/11 84/100/11 53/60/11
f 53/60/11 45/59/11 81/101/11
f 14/14/1 86/103/1 56/65/1
f 56/65/1 11/11/1 14/14/1
f 59/68/2 10/10/2 9/127/2
f 9/127/2 60/69/2 59/68/2
f 65/74/15 92/128/15 66/75/15
f 52/129/9 51/123/9 72/81/9
f 72/81/9 71/80/9 52/129/9
f 60/88/9 9/130/9 44/131/9
f 44/131/9 77/89/9 60/88/9
f 44/131/12 52/132/12 71/96/12
f 71/96/12 77/89/12 44/131/12
f 93/133/22 94/134/22 88/108/22
f 88/108/22 87/107/22 93/133/22
f 95/135/1 57/66/1 56/65/1
f 56/65/1 90/110/1 95/135/1
f 84/113/23 73/82/23 72/81/23
f 72/81/9 53/122/9 84/113/9
f 62/71/1 95/135/1 90/110/1
f 90/110/1 59/68/1 62/71/1
f 95/135/1 62/71/1 3/3/1
f 3/3/1 2/2/1 95/135/1
f 62/71/2 61/70/2 5/5/2
f 5/5/2 3/3/2 62/71/2
f 70/79/17 69/78/17 67/76/17
f 70/79/17 67/76/17 96/136/17
f 89/109/24 70/79/24 96/136/24
f 97/137/25 98/138/25 31/31/25
f 31/31/25 30/30/25 97/137/25
f 74/83/9 73/82/9 34/34/9
f 34/34/9 33/33/9 74/83/9
f 61/91/9 78/90/9 41/42/9
f 41/42/9 5/41/9 61/91/9
f 78/90/12 74/97/12 33/55/12
f 33/55/12 41/42/12 78/90/12
f 63/72/4 18/18/4 17/17/4
f 17/17/4 22/22/4 63/72/4
f 31/31/11 98/138/11 75/84/11
f 79/92/9 50/139/9 49/140/9
f 49/140/9 80/93/9 79/92/9
f 49/141/11 55/142/11 83/99/11
f 83/99/11 80/98/11 49/141/11
f 58/67/1 57/66/1 85/102/1
f 85/102/1 63/72/1 58/67/1
f 99/143/25 97/137/25 30/30/25
f 30/30/25 89/109/25 99/143/25
f 57/66/1 95/135/1 2/2/1
f 2/2/1 85/102/1 57/66/1
f 55/144/9 35/35/9 34/34/9
f 34/34/9 83/114/9 55/144/9
f 92/128/3 94/134/3 20/20/3
f 20/20/3 19/19/3 92/128/3
f 23/23/4 99/143/4 96/136/4
f 96/136/4 24/24/4 23/23/4
f 93/133/11 91/126/11 38/38/11
f 38/38/11 37/37/11 93/133/11
f 12/12/26 64/73/26 100/145/26
f 100/145/26 101/146/26 12/12/26
f 79/92/11 82/95/11 102/147/11
f 102/147/11 103/148/11 79/92/11
f 82/95/11 39/39/11 38/38/11
f 38/38/11 102/147/11 82/95/11
f 19/19/26 13/13/26 12/12/26
f 12/12/26 101/146/26 19/19/26
f 40/112/7 21/21/7 20/20/7
f 20/20/7 37/149/7 40/112/7
f 64/73/26 22/22/26 24/24/26
f 24/24/26 100/145/26 64/73/26
f 16/16/27 50/105/27 104/150/27
f 104/150/27 105/151/27 16/16/27
f 104/152/11 50/139/11 79/92/11
f 79/92/11 103/148/11 104/152/11
f 23/23/27 17/17/27 16/16/27
f 16/16/28 105/151/28 23/23/28
f 101/146/4 100/145/4 67/76/4
f 67/76/4 66/75/4 101/146/4
f 103/148/11 102/147/11 76/85/11
f 76/85/11 75/84/11 103/148/11
f 102/147/11 38/38/11 91/126/11
f 91/126/11 76/85/11 102/147/11
f 66/75/4 92/128/4 19/19/4
f 19/19/4 101/146/4 66/75/4
f 37/149/3 20/20/3 94/134/3
f 94/134/3 93/133/3 37/149/3
f 100/145/4 24/24/4 96/136/4
f 96/136/4 67/76/4 100/145/4
f 105/151/5 104/150/5 98/138/5
f 98/138/5 97/137/5 105/151/5
f 75/84/11 98/138/11 104/152/11
f 104/152/11 103/148/11 75/84/11
f 99/143/5 23/23/5 105/151/5
f 105/151/5 97/137/5 99/143/5
f 65/74/22 88/108/22 94/134/22
f 94/134/22 92/128/22 65/74/22
f 99/143/29 89/109/29 96/136/29
f 93/133/11 87/107/11 91/126/11
