# Blender v2.62 (sub 0) OBJ File: 'notebook-display.blend'
# www.blender.org
o Mesh_Display
v 8.750000 21.658503 -10.635596
v 8.750000 17.284002 -8.595798
v 16.624100 17.284002 -8.595798
v 16.624100 21.658503 -10.635596
v 17.500000 16.855402 -9.514897
v 8.750000 16.855402 -9.514897
v 8.750000 22.023802 -11.924896
v 17.500000 22.023802 -11.924896
v 17.500000 17.489302 -8.155397
v 17.500000 22.657701 -10.565496
v 8.750000 0.000000 0.000000
v 8.750000 -0.633900 -1.359500
v 17.500000 -0.633900 -1.359500
v 17.500000 0.000000 0.000000
v -17.500000 5.168400 -2.410099
v -17.500000 4.534501 -3.769499
v -17.500000 -0.633900 -1.359500
v -17.500000 0.000000 0.000000
v -8.750000 22.657701 -10.565496
v -8.750000 22.023802 -11.924896
v -17.500000 22.023802 -11.924896
v -17.500000 22.657701 -10.565496
v 8.750000 22.657701 -10.565496
v 8.750000 21.863802 -10.195296
v 16.624100 21.863802 -10.195296
v -17.500000 17.489302 -8.155397
v -16.624100 17.489302 -8.155397
v -16.624100 21.863802 -10.195296
v -8.750000 0.000000 0.000000
v -8.750000 0.793900 -0.370200
v -16.624100 0.793900 -0.370200
v 17.500000 5.168400 -2.410099
v 16.624100 5.168400 -2.410099
v 16.624100 0.793900 -0.370200
v -16.624100 17.284002 -8.595798
v -16.624100 21.658503 -10.635596
v -8.750000 0.588500 -0.810500
v -16.624100 0.588500 -0.810500
v 16.624100 4.963100 -2.850399
v 16.624100 0.588500 -0.810500
v -16.624100 4.963100 -2.850399
v -8.750000 4.963100 -2.850399
v -8.750000 11.123501 -5.723098
v -16.624100 11.123501 -5.723098
v 17.500000 4.534501 -3.769499
v 8.750000 4.534501 -3.769499
v 8.750000 10.694901 -6.642198
v 17.500000 10.694901 -6.642198
v 17.500000 11.328801 -5.282698
v -17.500000 16.855402 -9.514897
v -17.500000 10.694901 -6.642198
v -17.500000 11.328801 -5.282698
v -16.624100 5.168400 -2.410099
v -16.624100 11.328801 -5.282698
v 16.624100 17.489302 -8.155397
v 16.624100 11.328801 -5.282698
v 16.624100 11.123501 -5.723098
v -8.750000 17.284002 -8.595798
v -8.750000 21.658503 -10.635596
v 0.000000 17.284002 -8.595798
v 0.000000 21.658503 -10.635596
v -8.750000 16.855402 -9.514897
v 0.000000 22.023802 -11.924896
v 0.000000 16.855402 -9.514897
v -8.750000 -0.633900 -1.359500
v 0.000000 -0.633900 -1.359500
v 0.000000 0.000000 0.000000
v 0.000000 22.657701 -10.565496
v -8.750000 21.863802 -10.195296
v 0.000000 21.863802 -10.195296
v 8.750000 0.793900 -0.370200
v 0.000000 0.793900 -0.370200
v 8.750000 0.588500 -0.810500
v 0.000000 0.588500 -0.810500
v 8.750000 4.963100 -2.850399
v 8.750000 11.123501 -5.723098
v 0.000000 11.123501 -5.723098
v 0.000000 4.963100 -2.850399
v -8.750000 4.534501 -3.769499
v -8.750000 10.694901 -6.642198
v 0.000000 10.694901 -6.642198
v 0.000000 4.534501 -3.769499
vt 0.466281 0.999999
vt 0.466281 0.911302
vt 0.610976 0.911302
vt 0.610976 0.999998
vt 0.676794 0.168838
vt 0.519906 0.166963
vt 0.518703 0.065556
vt 0.677482 0.063454
vt 0.703620 0.169570
vt 0.705144 0.063315
vt 0.517995 0.533999
vt 0.518557 0.507412
vt 0.678059 0.509029
vt 0.677936 0.536138
vt 0.029928 0.402607
vt 0.056827 0.403417
vt 0.055612 0.509116
vt 0.027898 0.509115
vt 0.215715 0.038563
vt 0.215150 0.065102
vt 0.056091 0.063614
vt 0.056178 0.036574
vt 0.518160 0.039080
vt 0.517561 0.020052
vt 0.658630 0.018183
vt 0.677275 0.036213
vt 0.030451 0.169538
vt 0.014968 0.170102
vt 0.012483 0.079742
vt 0.028365 0.063615
vt 0.215395 0.533476
vt 0.215996 0.552537
vt 0.074559 0.554502
vt 0.055847 0.536430
vt 0.703333 0.402691
vt 0.718854 0.402088
vt 0.721704 0.492663
vt 0.705846 0.508899
vt 0.516698 0.001157
vt 0.657785 0.000000
vt 0.001956 0.170662
vt 0.000640 0.080077
vt 0.216867 0.571462
vt 0.075419 0.572731
vt 0.731891 0.401491
vt 0.733573 0.492282
vt 0.000000 0.661484
vt 0.144696 0.661484
vt 0.144697 0.786393
vt 0.000000 0.786393
vt 0.676611 0.403506
vt 0.520121 0.405776
vt 0.520261 0.286431
vt 0.675342 0.286201
vt 0.701227 0.286251
vt 0.057091 0.168782
vt 0.058339 0.285850
vt 0.032459 0.285790
vt 0.014397 0.401956
vt 0.017178 0.285722
vt 0.719120 0.170173
vt 0.716511 0.286303
vt 0.001238 0.401918
vt 0.002093 0.286089
vt 0.732256 0.170166
vt 0.731600 0.285911
vt 0.000000 0.572785
vt 0.144696 0.572785
vt 0.011957 0.492964
vt 0.000000 0.492998
vt 0.144697 0.911303
vt 0.000000 0.911303
vt 0.721127 0.079351
vt 0.733060 0.079262
vt 0.144697 1.000000
vt 0.305489 0.911303
vt 0.305489 0.999999
vt 0.213759 0.166866
vt 0.367017 0.066797
vt 0.366910 0.167016
vt 0.214862 0.506948
vt 0.366619 0.505765
vt 0.366538 0.531759
vt 0.367098 0.040815
vt 0.215976 0.019572
vt 0.366835 0.021203
vt 0.517728 0.553022
vt 0.366801 0.551381
vt 0.215431 0.000496
vt 0.366133 0.001604
vt 0.518263 0.572126
vt 0.367503 0.570988
vt 0.466281 0.661484
vt 0.466281 0.786393
vt 0.305489 0.786393
vt 0.305489 0.661484
vt 0.213451 0.405660
vt 0.213351 0.286326
vt 0.366807 0.286356
vt 0.366715 0.405603
vt 0.466281 0.572785
vt 0.305488 0.572785
vt 0.659390 0.554250
vt 0.659969 0.572785
vt 0.610977 0.661484
vt 0.610976 0.786393
vt 0.610977 0.572786
vt 0.000000 1.000000
vt 0.074656 0.018492
vt 0.074056 0.000001
vn 0.000000 0.422607 0.906313
vn 0.000000 -0.422609 -0.906312
vn 1.000000 0.000000 -0.000000
vn 0.000000 -0.906319 0.422593
vn -1.000000 0.000000 0.000000
vn 0.000000 0.906308 -0.422619
vn 0.000000 0.422617 0.906308
vn 0.000000 0.422624 0.906305
vn 0.000007 0.422623 0.906305
vn -0.000000 0.422617 0.906309
vn 0.000000 -0.906320 0.422591
vn 0.000000 0.906241 -0.422761
vn 0.000000 0.422625 0.906305
vn 0.000000 -0.422625 -0.906305
vn 0.000000 0.422613 0.906310
vn -0.000000 0.422620 0.906307
vn -0.000007 0.422623 0.906305
vn 0.000000 -0.422619 -0.906307
vn -0.000000 0.422619 0.906307
s off
f 1/1/1 2/2/1 3/3/1
f 4/4/1 1/1/1 3/3/1
f 5/5/2 6/6/2 7/7/2
f 7/7/2 8/8/2 5/5/2
f 9/9/3 5/5/3 8/8/3
f 8/8/3 10/10/3 9/9/3
f 11/11/4 12/12/4 13/13/4
f 13/13/4 14/14/4 11/11/4
f 15/15/5 16/16/5 17/17/5
f 17/17/5 18/18/5 15/15/5
f 19/19/6 20/20/6 21/21/6
f 21/21/6 22/22/6 19/19/6
f 23/23/7 24/24/7 25/25/7
f 25/25/7 10/26/7 23/23/7
f 26/27/8 27/28/8 28/29/8
f 28/29/9 22/30/9 26/27/9
f 29/31/10 30/32/10 31/33/10
f 31/33/10 18/34/10 29/31/10
f 32/35/8 33/36/8 34/37/8
f 34/37/9 14/38/9 32/35/9
f 24/24/11 1/39/11 4/40/11
f 4/40/11 25/25/11 24/24/11
f 27/28/3 35/41/3 36/42/3
f 36/42/3 28/29/3 27/28/3
f 30/32/12 37/43/12 38/44/12
f 38/44/12 31/33/12 30/32/12
f 33/36/5 39/45/5 40/46/5
f 40/46/5 34/37/5 33/36/5
f 41/47/13 42/48/13 43/49/13
f 43/49/13 44/50/13 41/47/13
f 45/51/14 46/52/14 47/53/14
f 47/53/14 48/54/14 45/51/14
f 32/35/3 45/51/3 48/54/3
f 48/54/3 49/55/3 32/35/3
f 26/27/5 50/56/5 51/57/5
f 51/57/5 52/58/5 26/27/5
f 15/15/15 53/59/15 54/60/15
f 54/60/15 52/58/15 15/15/15
f 9/9/16 55/61/16 56/62/16
f 56/62/16 49/55/16 9/9/16
f 53/59/3 41/63/3 44/64/3
f 44/64/3 54/60/3 53/59/3
f 55/61/5 3/65/5 57/66/5
f 57/66/5 56/62/5 55/61/5
f 52/58/5 51/57/5 16/16/5
f 16/16/5 15/15/5 52/58/5
f 49/55/15 56/62/15 33/36/15
f 33/36/15 32/35/15 49/55/15
f 56/62/5 57/66/5 39/45/5
f 39/45/5 33/36/5 56/62/5
f 38/67/10 37/68/10 42/48/10
f 42/48/10 41/47/10 38/67/10
f 13/13/2 12/12/2 46/52/2
f 46/52/2 45/51/2 13/13/2
f 14/38/3 13/13/3 45/51/3
f 45/51/3 32/35/3 14/38/3
f 15/15/17 18/18/17 31/69/17
f 31/69/8 53/59/8 15/15/8
f 31/69/3 38/70/3 41/63/3
f 41/63/3 53/59/3 31/69/3
f 44/50/16 43/49/16 58/71/16
f 58/71/16 35/72/16 44/50/16
f 48/54/18 47/53/18 6/6/18
f 6/6/18 5/5/18 48/54/18
f 49/55/3 48/54/3 5/5/3
f 5/5/3 9/9/3 49/55/3
f 52/58/16 54/60/16 27/28/16
f 27/28/16 26/27/16 52/58/16
f 54/60/3 44/64/3 35/41/3
f 35/41/3 27/28/3 54/60/3
f 22/30/5 21/21/5 50/56/5
f 50/56/5 26/27/5 22/30/5
f 9/9/17 10/10/17 25/73/17
f 25/73/8 55/61/8 9/9/8
f 25/73/5 4/74/5 3/65/5
f 3/65/5 55/61/5 25/73/5
f 59/75/1 58/71/1 60/76/1
f 60/76/1 61/77/1 59/75/1
f 62/78/2 20/20/2 63/79/2
f 63/79/2 64/80/2 62/78/2
f 29/31/4 65/81/4 66/82/4
f 66/82/4 67/83/4 29/31/4
f 23/23/6 7/7/6 63/79/6
f 63/79/6 68/84/6 23/23/6
f 19/19/7 69/85/7 70/86/7
f 70/86/7 68/84/7 19/19/7
f 11/11/10 71/87/10 72/88/10
f 72/88/10 67/83/10 11/11/10
f 69/85/11 59/89/11 61/90/11
f 61/90/11 70/86/11 69/85/11
f 71/87/12 73/91/12 74/92/12
f 74/92/12 72/88/12 71/87/12
f 75/93/13 76/94/13 77/95/13
f 77/95/13 78/96/13 75/93/13
f 79/97/14 80/98/14 81/99/14
f 81/99/14 82/100/14 79/97/14
f 73/101/10 75/93/10 78/96/10
f 78/96/10 74/102/10 73/101/10
f 65/81/2 79/97/2 82/100/2
f 82/100/2 66/82/2 65/81/2
f 76/94/19 2/2/19 60/76/19
f 60/76/19 77/95/19 76/94/19
f 80/98/18 62/78/18 64/80/18
f 64/80/18 81/99/18 80/98/18
f 61/77/1 60/76/1 2/2/1
f 2/2/1 1/1/1 61/77/1
f 64/80/2 63/79/2 7/7/2
f 7/7/2 6/6/2 64/80/2
f 67/83/4 66/82/4 12/12/4
f 12/12/4 11/11/4 67/83/4
f 68/84/7 70/86/7 24/24/7
f 24/24/7 23/23/7 68/84/7
f 61/90/11 1/39/11 70/86/11
f 1/39/11 24/24/11 70/86/11
f 82/100/14 81/99/14 47/53/14
f 47/53/14 46/52/14 82/100/14
f 66/82/2 82/100/2 46/52/2
f 46/52/2 12/12/2 66/82/2
f 81/99/18 64/80/18 6/6/18
f 6/6/18 47/53/18 81/99/18
f 10/26/6 8/8/6 7/7/6
f 7/7/6 23/23/6 10/26/6
f 11/11/10 14/14/10 34/103/10
f 34/103/10 71/87/10 11/11/10
f 34/103/12 40/104/12 73/91/12
f 73/91/12 71/87/12 34/103/12
f 39/105/13 57/106/13 76/94/13
f 76/94/13 75/93/13 39/105/13
f 40/107/10 39/105/10 75/93/10
f 75/93/10 73/101/10 40/107/10
f 57/106/16 3/3/16 2/2/16
f 2/2/16 76/94/16 57/106/16
f 68/84/6 63/79/6 20/20/6
f 20/20/6 19/19/6 68/84/6
f 67/83/10 72/88/10 30/32/10
f 30/32/10 29/31/10 67/83/10
f 72/88/12 74/92/12 37/43/12
f 37/43/12 30/32/12 72/88/12
f 78/96/13 77/95/13 43/49/13
f 43/49/13 42/48/13 78/96/13
f 74/102/10 78/96/10 42/48/10
f 42/48/10 37/68/10 74/102/10
f 77/95/19 60/76/19 58/71/19
f 58/71/19 43/49/19 77/95/19
f 36/108/1 35/72/1 58/71/1
f 58/71/1 59/75/1 36/108/1
f 50/56/2 21/21/2 20/20/2
f 20/20/2 62/78/2 50/56/2
f 18/34/4 17/17/4 65/81/4
f 65/81/4 29/31/4 18/34/4
f 19/19/7 22/22/7 28/109/7
f 28/109/7 69/85/7 19/19/7
f 28/109/11 36/110/11 59/89/11
f 59/89/11 69/85/11 28/109/11
f 16/16/14 51/57/14 80/98/14
f 80/98/14 79/97/14 16/16/14
f 17/17/2 16/16/2 79/97/2
f 79/97/2 65/81/2 17/17/2
f 51/57/18 50/56/18 62/78/18
f 62/78/18 80/98/18 51/57/18
